<?xml version="1.0" encoding="utf-8" standalone="no"?>
<!DOCTYPE svg PUBLIC "-//W3C//DTD SVG 1.1//EN"
  "http://www.w3.org/Graphics/SVG/1.1/DTD/svg11.dtd">
<svg xmlns:xlink="http://www.w3.org/1999/xlink" width="1008pt" height="504pt" viewBox="0 0 1008 504" xmlns="http://www.w3.org/2000/svg" version="1.1">
 <metadata>
  <rdf:RDF xmlns:dc="http://purl.org/dc/elements/1.1/" xmlns:cc="http://creativecommons.org/ns#" xmlns:rdf="http://www.w3.org/1999/02/22-rdf-syntax-ns#">
   <cc:Work>
    <dc:type rdf:resource="http://purl.org/dc/dcmitype/StillImage"/>
    <dc:date>2024-07-25T17:02:05.617034</dc:date>
    <dc:format>image/svg+xml</dc:format>
    <dc:creator>
     <cc:Agent>
      <dc:title>Matplotlib v3.8.4, https://matplotlib.org/</dc:title>
     </cc:Agent>
    </dc:creator>
   </cc:Work>
  </rdf:RDF>
 </metadata>
 <defs>
  <style type="text/css">*{stroke-linejoin: round; stroke-linecap: butt}</style>
 </defs>
 <g id="figure_1">
  <g id="patch_1">
   <path d="M 0 504 
L 1008 504 
L 1008 0 
L 0 0 
z
" style="fill: #ffffff"/>
  </g>
  <g id="axes_1">
   <g id="patch_2">
    <path d="M 50.24 447.24964 
L 997.2 447.24964 
L 997.2 25.44 
L 50.24 25.44 
z
" style="fill: #ffffff"/>
   </g>
   <g id="patch_3">
    <path d="M 73.914 447.24964 
L 121.262 447.24964 
L 121.262 55.475507 
L 73.914 55.475507 
z
" clip-path="url(#p1bb3439ede)" style="fill: #0088ed"/>
   </g>
   <g id="patch_4">
    <path d="M 168.61 447.24964 
L 215.958 447.24964 
L 215.958 92.670707 
L 168.61 92.670707 
z
" clip-path="url(#p1bb3439ede)" style="fill: #0088ed"/>
   </g>
   <g id="patch_5">
    <path d="M 263.306 447.24964 
L 310.654 447.24964 
L 310.654 84.48164 
L 263.306 84.48164 
z
" clip-path="url(#p1bb3439ede)" style="fill: #0088ed"/>
   </g>
   <g id="patch_6">
    <path d="M 358.002 447.24964 
L 405.35 447.24964 
L 405.35 78.129373 
L 358.002 78.129373 
z
" clip-path="url(#p1bb3439ede)" style="fill: #0088ed"/>
   </g>
   <g id="patch_7">
    <path d="M 452.698 447.24964 
L 500.046 447.24964 
L 500.046 45.526173 
L 452.698 45.526173 
z
" clip-path="url(#p1bb3439ede)" style="fill: #0088ed"/>
   </g>
   <g id="patch_8">
    <path d="M 547.394 447.24964 
L 594.742 447.24964 
L 594.742 110.273373 
L 547.394 110.273373 
z
" clip-path="url(#p1bb3439ede)" style="fill: #0088ed"/>
   </g>
   <g id="patch_9">
    <path d="M 642.09 447.24964 
L 689.438 447.24964 
L 689.438 77.746707 
L 642.09 77.746707 
z
" clip-path="url(#p1bb3439ede)" style="fill: #0088ed"/>
   </g>
   <g id="patch_10">
    <path d="M 736.786 447.24964 
L 784.134 447.24964 
L 784.134 77.670173 
L 736.786 77.670173 
z
" clip-path="url(#p1bb3439ede)" style="fill: #0088ed"/>
   </g>
   <g id="patch_11">
    <path d="M 831.482 447.24964 
L 878.83 447.24964 
L 878.83 77.670173 
L 831.482 77.670173 
z
" clip-path="url(#p1bb3439ede)" style="fill: #0088ed"/>
   </g>
   <g id="patch_12">
    <path d="M 926.178 447.24964 
L 973.526 447.24964 
L 973.526 77.899773 
L 926.178 77.899773 
z
" clip-path="url(#p1bb3439ede)" style="fill: #0088ed"/>
   </g>
   <g id="matplotlib.axis_1">
    <g id="xtick_1">
     <g id="line2d_1">
      <defs>
       <path id="m13b893b94c" d="M 0 0 
L 0 3.5 
" style="stroke: #58544f; stroke-width: 0.8"/>
      </defs>
      <g>
       <use xlink:href="#m13b893b94c" x="97.588" y="447.24964" style="fill: #58544f; stroke: #58544f; stroke-width: 0.8"/>
      </g>
     </g>
     <g id="text_1">
      <!-- 0%- -->
      <g style="fill: #58544f" transform="translate(80.972758 467.718257) rotate(-45) scale(0.08 -0.08)">
       <defs>
        <path id="Roboto-Medium-30" d="M 3306 1916 
Q 3306 934 2939 435 
Q 2572 -63 1822 -63 
Q 1084 -63 711 423 
Q 338 909 328 1863 
L 328 2650 
Q 328 3631 695 4122 
Q 1063 4613 1816 4613 
Q 2563 4613 2930 4134 
Q 3297 3656 3306 2703 
L 3306 1916 
z
M 2547 2766 
Q 2547 3406 2372 3704 
Q 2197 4003 1816 4003 
Q 1444 4003 1269 3720 
Q 1094 3438 1084 2838 
L 1084 1806 
Q 1084 1169 1262 856 
Q 1441 544 1822 544 
Q 2188 544 2363 833 
Q 2538 1122 2547 1738 
L 2547 2766 
z
" transform="scale(0.015625)"/>
        <path id="Roboto-Medium-25" d="M 309 3675 
Q 309 4088 575 4352 
Q 841 4616 1272 4616 
Q 1709 4616 1973 4352 
Q 2238 4088 2238 3659 
L 2238 3434 
Q 2238 3025 1973 2762 
Q 1709 2500 1278 2500 
Q 856 2500 582 2758 
Q 309 3016 309 3453 
L 309 3675 
z
M 841 3434 
Q 841 3219 961 3086 
Q 1081 2953 1278 2953 
Q 1472 2953 1590 3086 
Q 1709 3219 1709 3447 
L 1709 3675 
Q 1709 3891 1589 4025 
Q 1469 4159 1272 4159 
Q 1075 4159 958 4023 
Q 841 3888 841 3666 
L 841 3434 
z
M 2497 1116 
Q 2497 1534 2769 1793 
Q 3041 2053 3463 2053 
Q 3888 2053 4158 1793 
Q 4428 1534 4428 1094 
L 4428 872 
Q 4428 466 4167 201 
Q 3906 -63 3468 -63 
Q 3031 -63 2764 198 
Q 2497 459 2497 888 
L 2497 1116 
z
M 3028 872 
Q 3028 659 3151 523 
Q 3275 388 3469 388 
Q 3669 388 3783 517 
Q 3897 647 3897 881 
L 3897 1116 
Q 3897 1334 3775 1465 
Q 3653 1597 3463 1597 
Q 3269 1597 3148 1465 
Q 3028 1334 3028 1103 
L 3028 872 
z
M 1434 341 
L 1044 566 
L 3266 4122 
L 3656 3897 
L 1434 341 
z
" transform="scale(0.015625)"/>
        <path id="Roboto-Medium-2d" d="M 1863 1628 
L 222 1628 
L 222 2241 
L 1863 2241 
L 1863 1628 
z
" transform="scale(0.015625)"/>
       </defs>
       <use xlink:href="#Roboto-Medium-30"/>
       <use xlink:href="#Roboto-Medium-25" x="56.835938"/>
       <use xlink:href="#Roboto-Medium-2d" x="130.273438"/>
      </g>
      <!-- 10% -->
      <g style="fill: #58544f" transform="translate(85.853563 475.317887) rotate(-45) scale(0.08 -0.08)">
       <defs>
        <path id="Roboto-Medium-31" d="M 2397 0 
L 1641 0 
L 1641 3653 
L 525 3272 
L 525 3913 
L 2300 4566 
L 2397 4566 
L 2397 0 
z
" transform="scale(0.015625)"/>
       </defs>
       <use xlink:href="#Roboto-Medium-31"/>
       <use xlink:href="#Roboto-Medium-30" x="56.835938"/>
       <use xlink:href="#Roboto-Medium-25" x="113.671875"/>
      </g>
     </g>
    </g>
    <g id="xtick_2">
     <g id="line2d_2">
      <g>
       <use xlink:href="#m13b893b94c" x="192.284" y="447.24964" style="fill: #58544f; stroke: #58544f; stroke-width: 0.8"/>
      </g>
     </g>
     <g id="text_2">
      <!-- 10%- -->
      <g style="fill: #58544f" transform="translate(172.45319 470.933825) rotate(-45) scale(0.08 -0.08)">
       <use xlink:href="#Roboto-Medium-31"/>
       <use xlink:href="#Roboto-Medium-30" x="56.835938"/>
       <use xlink:href="#Roboto-Medium-25" x="113.671875"/>
       <use xlink:href="#Roboto-Medium-2d" x="187.109375"/>
      </g>
      <!-- 20% -->
      <g style="fill: #58544f" transform="translate(180.549563 475.317887) rotate(-45) scale(0.08 -0.08)">
       <defs>
        <path id="Roboto-Medium-32" d="M 3400 0 
L 341 0 
L 341 522 
L 1856 2175 
Q 2184 2541 2323 2786 
Q 2463 3031 2463 3278 
Q 2463 3603 2280 3803 
Q 2097 4003 1788 4003 
Q 1419 4003 1216 3778 
Q 1013 3553 1013 3163 
L 253 3163 
Q 253 3578 442 3911 
Q 631 4244 982 4428 
Q 1334 4613 1794 4613 
Q 2456 4613 2839 4280 
Q 3222 3947 3222 3359 
Q 3222 3019 3030 2645 
Q 2838 2272 2400 1797 
L 1288 606 
L 3400 606 
L 3400 0 
z
" transform="scale(0.015625)"/>
       </defs>
       <use xlink:href="#Roboto-Medium-32"/>
       <use xlink:href="#Roboto-Medium-30" x="56.835938"/>
       <use xlink:href="#Roboto-Medium-25" x="113.671875"/>
      </g>
     </g>
    </g>
    <g id="xtick_3">
     <g id="line2d_3">
      <g>
       <use xlink:href="#m13b893b94c" x="286.98" y="447.24964" style="fill: #58544f; stroke: #58544f; stroke-width: 0.8"/>
      </g>
     </g>
     <g id="text_3">
      <!-- 20%- -->
      <g style="fill: #58544f" transform="translate(267.14919 470.933825) rotate(-45) scale(0.08 -0.08)">
       <use xlink:href="#Roboto-Medium-32"/>
       <use xlink:href="#Roboto-Medium-30" x="56.835938"/>
       <use xlink:href="#Roboto-Medium-25" x="113.671875"/>
       <use xlink:href="#Roboto-Medium-2d" x="187.109375"/>
      </g>
      <!-- 30% -->
      <g style="fill: #58544f" transform="translate(275.245563 475.317887) rotate(-45) scale(0.08 -0.08)">
       <defs>
        <path id="Roboto-Medium-33" d="M 1219 2622 
L 1681 2622 
Q 2031 2625 2236 2803 
Q 2441 2981 2441 3319 
Q 2441 3644 2270 3823 
Q 2100 4003 1750 4003 
Q 1444 4003 1247 3826 
Q 1050 3650 1050 3366 
L 291 3366 
Q 291 3716 477 4003 
Q 663 4291 995 4452 
Q 1328 4613 1741 4613 
Q 2422 4613 2811 4270 
Q 3200 3928 3200 3319 
Q 3200 3013 3004 2742 
Q 2809 2472 2500 2334 
Q 2875 2206 3070 1931 
Q 3266 1656 3266 1275 
Q 3266 663 2845 300 
Q 2425 -63 1741 -63 
Q 1084 -63 665 287 
Q 247 638 247 1219 
L 1006 1219 
Q 1006 919 1207 731 
Q 1409 544 1750 544 
Q 2103 544 2306 731 
Q 2509 919 2509 1275 
Q 2509 1634 2296 1828 
Q 2084 2022 1666 2022 
L 1219 2022 
L 1219 2622 
z
" transform="scale(0.015625)"/>
       </defs>
       <use xlink:href="#Roboto-Medium-33"/>
       <use xlink:href="#Roboto-Medium-30" x="56.835938"/>
       <use xlink:href="#Roboto-Medium-25" x="113.671875"/>
      </g>
     </g>
    </g>
    <g id="xtick_4">
     <g id="line2d_4">
      <g>
       <use xlink:href="#m13b893b94c" x="381.676" y="447.24964" style="fill: #58544f; stroke: #58544f; stroke-width: 0.8"/>
      </g>
     </g>
     <g id="text_4">
      <!-- 30%- -->
      <g style="fill: #58544f" transform="translate(361.84519 470.933825) rotate(-45) scale(0.08 -0.08)">
       <use xlink:href="#Roboto-Medium-33"/>
       <use xlink:href="#Roboto-Medium-30" x="56.835938"/>
       <use xlink:href="#Roboto-Medium-25" x="113.671875"/>
       <use xlink:href="#Roboto-Medium-2d" x="187.109375"/>
      </g>
      <!-- 40% -->
      <g style="fill: #58544f" transform="translate(369.941563 475.317887) rotate(-45) scale(0.08 -0.08)">
       <defs>
        <path id="Roboto-Medium-34" d="M 2909 1622 
L 3475 1622 
L 3475 1013 
L 2909 1013 
L 2909 0 
L 2150 0 
L 2150 1013 
L 184 1013 
L 163 1475 
L 2125 4550 
L 2909 4550 
L 2909 1622 
z
M 959 1622 
L 2150 1622 
L 2150 3522 
L 2094 3422 
L 959 1622 
z
" transform="scale(0.015625)"/>
       </defs>
       <use xlink:href="#Roboto-Medium-34"/>
       <use xlink:href="#Roboto-Medium-30" x="56.835938"/>
       <use xlink:href="#Roboto-Medium-25" x="113.671875"/>
      </g>
     </g>
    </g>
    <g id="xtick_5">
     <g id="line2d_5">
      <g>
       <use xlink:href="#m13b893b94c" x="476.372" y="447.24964" style="fill: #58544f; stroke: #58544f; stroke-width: 0.8"/>
      </g>
     </g>
     <g id="text_5">
      <!-- 40%- -->
      <g style="fill: #58544f" transform="translate(456.54119 470.933825) rotate(-45) scale(0.08 -0.08)">
       <use xlink:href="#Roboto-Medium-34"/>
       <use xlink:href="#Roboto-Medium-30" x="56.835938"/>
       <use xlink:href="#Roboto-Medium-25" x="113.671875"/>
       <use xlink:href="#Roboto-Medium-2d" x="187.109375"/>
      </g>
      <!-- 50% -->
      <g style="fill: #58544f" transform="translate(464.637563 475.317887) rotate(-45) scale(0.08 -0.08)">
       <defs>
        <path id="Roboto-Medium-35" d="M 544 2256 
L 791 4550 
L 3234 4550 
L 3234 3894 
L 1422 3894 
L 1297 2806 
Q 1613 2988 2009 2988 
Q 2659 2988 3020 2572 
Q 3381 2156 3381 1453 
Q 3381 759 2981 348 
Q 2581 -63 1884 -63 
Q 1259 -63 848 292 
Q 438 647 403 1228 
L 1138 1228 
Q 1181 897 1375 720 
Q 1569 544 1881 544 
Q 2231 544 2426 794 
Q 2622 1044 2622 1475 
Q 2622 1891 2406 2133 
Q 2191 2375 1813 2375 
Q 1606 2375 1462 2320 
Q 1319 2266 1150 2106 
L 544 2256 
z
" transform="scale(0.015625)"/>
       </defs>
       <use xlink:href="#Roboto-Medium-35"/>
       <use xlink:href="#Roboto-Medium-30" x="56.835938"/>
       <use xlink:href="#Roboto-Medium-25" x="113.671875"/>
      </g>
     </g>
    </g>
    <g id="xtick_6">
     <g id="line2d_6">
      <g>
       <use xlink:href="#m13b893b94c" x="571.068" y="447.24964" style="fill: #58544f; stroke: #58544f; stroke-width: 0.8"/>
      </g>
     </g>
     <g id="text_6">
      <!-- 50%- -->
      <g style="fill: #58544f" transform="translate(551.23719 470.933825) rotate(-45) scale(0.08 -0.08)">
       <use xlink:href="#Roboto-Medium-35"/>
       <use xlink:href="#Roboto-Medium-30" x="56.835938"/>
       <use xlink:href="#Roboto-Medium-25" x="113.671875"/>
       <use xlink:href="#Roboto-Medium-2d" x="187.109375"/>
      </g>
      <!-- 60% -->
      <g style="fill: #58544f" transform="translate(559.333563 475.317887) rotate(-45) scale(0.08 -0.08)">
       <defs>
        <path id="Roboto-Medium-36" d="M 2703 4572 
L 2703 3944 
L 2609 3944 
Q 1972 3934 1590 3593 
Q 1209 3253 1138 2628 
Q 1503 3013 2072 3013 
Q 2675 3013 3023 2588 
Q 3372 2163 3372 1491 
Q 3372 797 2964 367 
Q 2556 -63 1894 -63 
Q 1213 -63 789 440 
Q 366 944 366 1759 
L 366 2019 
Q 366 3216 948 3894 
Q 1531 4572 2625 4572 
L 2703 4572 
z
M 1888 2400 
Q 1638 2400 1430 2259 
Q 1222 2119 1125 1884 
L 1125 1653 
Q 1125 1147 1337 848 
Q 1550 550 1887 550 
Q 2225 550 2422 803 
Q 2619 1056 2619 1468 
Q 2619 1881 2419 2140 
Q 2219 2400 1888 2400 
z
" transform="scale(0.015625)"/>
       </defs>
       <use xlink:href="#Roboto-Medium-36"/>
       <use xlink:href="#Roboto-Medium-30" x="56.835938"/>
       <use xlink:href="#Roboto-Medium-25" x="113.671875"/>
      </g>
     </g>
    </g>
    <g id="xtick_7">
     <g id="line2d_7">
      <g>
       <use xlink:href="#m13b893b94c" x="665.764" y="447.24964" style="fill: #58544f; stroke: #58544f; stroke-width: 0.8"/>
      </g>
     </g>
     <g id="text_7">
      <!-- 60%- -->
      <g style="fill: #58544f" transform="translate(645.93319 470.933825) rotate(-45) scale(0.08 -0.08)">
       <use xlink:href="#Roboto-Medium-36"/>
       <use xlink:href="#Roboto-Medium-30" x="56.835938"/>
       <use xlink:href="#Roboto-Medium-25" x="113.671875"/>
       <use xlink:href="#Roboto-Medium-2d" x="187.109375"/>
      </g>
      <!-- 70% -->
      <g style="fill: #58544f" transform="translate(654.029563 475.317887) rotate(-45) scale(0.08 -0.08)">
       <defs>
        <path id="Roboto-Medium-37" d="M 3369 4128 
L 1550 0 
L 753 0 
L 2569 3941 
L 216 3941 
L 216 4550 
L 3369 4550 
L 3369 4128 
z
" transform="scale(0.015625)"/>
       </defs>
       <use xlink:href="#Roboto-Medium-37"/>
       <use xlink:href="#Roboto-Medium-30" x="56.835938"/>
       <use xlink:href="#Roboto-Medium-25" x="113.671875"/>
      </g>
     </g>
    </g>
    <g id="xtick_8">
     <g id="line2d_8">
      <g>
       <use xlink:href="#m13b893b94c" x="760.46" y="447.24964" style="fill: #58544f; stroke: #58544f; stroke-width: 0.8"/>
      </g>
     </g>
     <g id="text_8">
      <!-- 70%- -->
      <g style="fill: #58544f" transform="translate(740.62919 470.933825) rotate(-45) scale(0.08 -0.08)">
       <use xlink:href="#Roboto-Medium-37"/>
       <use xlink:href="#Roboto-Medium-30" x="56.835938"/>
       <use xlink:href="#Roboto-Medium-25" x="113.671875"/>
       <use xlink:href="#Roboto-Medium-2d" x="187.109375"/>
      </g>
      <!-- 80% -->
      <g style="fill: #58544f" transform="translate(748.725563 475.317887) rotate(-45) scale(0.08 -0.08)">
       <defs>
        <path id="Roboto-Medium-38" d="M 3206 3350 
Q 3206 3016 3034 2755 
Q 2863 2494 2566 2344 
Q 2922 2178 3114 1890 
Q 3306 1603 3306 1241 
Q 3306 641 2900 289 
Q 2494 -63 1819 -63 
Q 1141 -63 733 290 
Q 325 644 325 1241 
Q 325 1606 519 1897 
Q 713 2188 1063 2344 
Q 769 2494 598 2755 
Q 428 3016 428 3350 
Q 428 3931 803 4272 
Q 1178 4613 1816 4613 
Q 2456 4613 2831 4272 
Q 3206 3931 3206 3350 
z
M 2547 1278 
Q 2547 1616 2345 1823 
Q 2144 2031 1812 2031 
Q 1481 2031 1282 1825 
Q 1084 1619 1084 1278 
Q 1084 944 1279 744 
Q 1475 544 1819 544 
Q 2163 544 2355 737 
Q 2547 931 2547 1278 
z
M 2450 3322 
Q 2450 3619 2278 3811 
Q 2106 4003 1815 4003 
Q 1525 4003 1356 3820 
Q 1188 3638 1188 3322 
Q 1188 3009 1358 2825 
Q 1528 2641 1818 2641 
Q 2109 2641 2279 2825 
Q 2450 3009 2450 3322 
z
" transform="scale(0.015625)"/>
       </defs>
       <use xlink:href="#Roboto-Medium-38"/>
       <use xlink:href="#Roboto-Medium-30" x="56.835938"/>
       <use xlink:href="#Roboto-Medium-25" x="113.671875"/>
      </g>
     </g>
    </g>
    <g id="xtick_9">
     <g id="line2d_9">
      <g>
       <use xlink:href="#m13b893b94c" x="855.156" y="447.24964" style="fill: #58544f; stroke: #58544f; stroke-width: 0.8"/>
      </g>
     </g>
     <g id="text_9">
      <!-- 80%- -->
      <g style="fill: #58544f" transform="translate(835.32519 470.933825) rotate(-45) scale(0.08 -0.08)">
       <use xlink:href="#Roboto-Medium-38"/>
       <use xlink:href="#Roboto-Medium-30" x="56.835938"/>
       <use xlink:href="#Roboto-Medium-25" x="113.671875"/>
       <use xlink:href="#Roboto-Medium-2d" x="187.109375"/>
      </g>
      <!-- 90% -->
      <g style="fill: #58544f" transform="translate(843.421563 475.317887) rotate(-45) scale(0.08 -0.08)">
       <defs>
        <path id="Roboto-Medium-39" d="M 2494 1903 
Q 2113 1500 1603 1500 
Q 1003 1500 647 1920 
Q 291 2341 291 3025 
Q 291 3475 472 3840 
Q 653 4206 987 4409 
Q 1322 4613 1763 4613 
Q 2450 4613 2853 4100 
Q 3256 3588 3256 2728 
L 3256 2516 
Q 3256 1284 2700 637 
Q 2144 -9 1041 -19 
L 950 -19 
L 950 609 
L 1059 609 
Q 1731 619 2090 933 
Q 2450 1247 2494 1903 
z
M 1763 2094 
Q 1991 2094 2191 2225 
Q 2391 2356 2500 2588 
L 2500 2884 
Q 2500 3388 2294 3694 
Q 2088 4000 1759 4000 
Q 1431 4000 1236 3729 
Q 1041 3459 1041 3047 
Q 1041 2619 1237 2356 
Q 1434 2094 1763 2094 
z
" transform="scale(0.015625)"/>
       </defs>
       <use xlink:href="#Roboto-Medium-39"/>
       <use xlink:href="#Roboto-Medium-30" x="56.835938"/>
       <use xlink:href="#Roboto-Medium-25" x="113.671875"/>
      </g>
     </g>
    </g>
    <g id="xtick_10">
     <g id="line2d_10">
      <g>
       <use xlink:href="#m13b893b94c" x="949.852" y="447.24964" style="fill: #58544f; stroke: #58544f; stroke-width: 0.8"/>
      </g>
     </g>
     <g id="text_10">
      <!-- 90%- -->
      <g style="fill: #58544f" transform="translate(930.02119 470.933825) rotate(-45) scale(0.08 -0.08)">
       <use xlink:href="#Roboto-Medium-39"/>
       <use xlink:href="#Roboto-Medium-30" x="56.835938"/>
       <use xlink:href="#Roboto-Medium-25" x="113.671875"/>
       <use xlink:href="#Roboto-Medium-2d" x="187.109375"/>
      </g>
      <!-- 100% -->
      <g style="fill: #58544f" transform="translate(934.901995 478.533455) rotate(-45) scale(0.08 -0.08)">
       <use xlink:href="#Roboto-Medium-31"/>
       <use xlink:href="#Roboto-Medium-30" x="56.835938"/>
       <use xlink:href="#Roboto-Medium-30" x="113.671875"/>
       <use xlink:href="#Roboto-Medium-25" x="170.507812"/>
      </g>
     </g>
    </g>
    <g id="text_11">
     <!-- Good Value Percentile Brackets -->
     <g style="fill: #58544f" transform="translate(452.999688 491.182503) scale(0.1 -0.1)">
      <defs>
       <path id="Roboto-Medium-47" d="M 3950 591 
Q 3703 269 3265 103 
Q 2828 -63 2272 -63 
Q 1700 -63 1259 196 
Q 819 456 580 939 
Q 341 1422 331 2066 
L 331 2422 
Q 331 3453 825 4033 
Q 1319 4613 2203 4613 
Q 2963 4613 3409 4238 
Q 3856 3863 3947 3156 
L 3172 3156 
Q 3041 3978 2219 3978 
Q 1688 3978 1411 3595 
Q 1134 3213 1125 2472 
L 1125 2122 
Q 1125 1384 1436 976 
Q 1747 569 2300 569 
Q 2906 569 3163 844 
L 3163 1734 
L 2225 1734 
L 2225 2334 
L 3950 2334 
L 3950 591 
z
" transform="scale(0.015625)"/>
       <path id="Roboto-Medium-6f" d="M 247 1722 
Q 247 2219 444 2617 
Q 641 3016 997 3230 
Q 1353 3444 1816 3444 
Q 2500 3444 2926 3003 
Q 3353 2563 3388 1834 
L 3391 1656 
Q 3391 1156 3198 762 
Q 3006 369 2648 153 
Q 2291 -63 1822 -63 
Q 1106 -63 676 414 
Q 247 891 247 1684 
L 247 1722 
z
M 1006 1656 
Q 1006 1134 1222 839 
Q 1438 544 1822 544 
Q 2206 544 2420 844 
Q 2634 1144 2634 1722 
Q 2634 2234 2414 2534 
Q 2194 2834 1816 2834 
Q 1444 2834 1225 2539 
Q 1006 2244 1006 1656 
z
" transform="scale(0.015625)"/>
       <path id="Roboto-Medium-64" d="M 247 1716 
Q 247 2497 609 2970 
Q 972 3444 1581 3444 
Q 2119 3444 2450 3069 
L 2450 4800 
L 3209 4800 
L 3209 0 
L 2522 0 
L 2484 350 
Q 2144 -63 1575 -63 
Q 981 -63 614 415 
Q 247 894 247 1716 
z
M 1006 1650 
Q 1006 1134 1204 845 
Q 1403 556 1769 556 
Q 2234 556 2450 972 
L 2450 2416 
Q 2241 2822 1775 2822 
Q 1406 2822 1206 2530 
Q 1006 2238 1006 1650 
z
" transform="scale(0.015625)"/>
       <path id="Roboto-Medium-20" transform="scale(0.015625)"/>
       <path id="Roboto-Medium-56" d="M 2066 991 
L 3222 4550 
L 4091 4550 
L 2453 0 
L 1688 0 
L 56 4550 
L 922 4550 
L 2066 991 
z
" transform="scale(0.015625)"/>
       <path id="Roboto-Medium-61" d="M 2409 0 
Q 2359 97 2322 316 
Q 1959 -63 1434 -63 
Q 925 -63 603 228 
Q 281 519 281 947 
Q 281 1488 682 1777 
Q 1084 2066 1831 2066 
L 2297 2066 
L 2297 2288 
Q 2297 2550 2150 2708 
Q 2003 2866 1703 2866 
Q 1444 2866 1278 2736 
Q 1113 2606 1113 2406 
L 353 2406 
Q 353 2684 537 2926 
Q 722 3169 1039 3306 
Q 1356 3444 1747 3444 
Q 2341 3444 2694 3145 
Q 3047 2847 3056 2306 
L 3056 781 
Q 3056 325 3184 53 
L 3184 0 
L 2409 0 
z
M 1575 547 
Q 1800 547 1998 656 
Q 2197 766 2297 950 
L 2297 1588 
L 1888 1588 
Q 1466 1588 1253 1441 
Q 1041 1294 1041 1025 
Q 1041 806 1186 676 
Q 1331 547 1575 547 
z
" transform="scale(0.015625)"/>
       <path id="Roboto-Medium-6c" d="M 1197 0 
L 438 0 
L 438 4800 
L 1197 4800 
L 1197 0 
z
" transform="scale(0.015625)"/>
       <path id="Roboto-Medium-75" d="M 2438 331 
Q 2103 -63 1488 -63 
Q 938 -63 655 259 
Q 372 581 372 1191 
L 372 3381 
L 1131 3381 
L 1131 1200 
Q 1131 556 1666 556 
Q 2219 556 2413 953 
L 2413 3381 
L 3172 3381 
L 3172 0 
L 2456 0 
L 2438 331 
z
" transform="scale(0.015625)"/>
       <path id="Roboto-Medium-65" d="M 1878 -63 
Q 1156 -63 707 392 
Q 259 847 259 1603 
L 259 1697 
Q 259 2203 454 2601 
Q 650 3000 1003 3222 
Q 1356 3444 1791 3444 
Q 2481 3444 2857 3003 
Q 3234 2563 3234 1756 
L 3234 1450 
L 1025 1450 
Q 1059 1031 1304 787 
Q 1550 544 1922 544 
Q 2444 544 2772 966 
L 3181 575 
Q 2978 272 2639 104 
Q 2300 -63 1878 -63 
z
M 1788 2834 
Q 1475 2834 1283 2615 
Q 1091 2397 1038 2006 
L 2484 2006 
L 2484 2063 
Q 2459 2444 2281 2639 
Q 2103 2834 1788 2834 
z
" transform="scale(0.015625)"/>
       <path id="Roboto-Medium-50" d="M 1253 1691 
L 1253 0 
L 463 0 
L 463 4550 
L 2203 4550 
Q 2966 4550 3414 4153 
Q 3863 3756 3863 3103 
Q 3863 2434 3423 2062 
Q 2984 1691 2194 1691 
L 1253 1691 
z
M 1253 2325 
L 2203 2325 
Q 2625 2325 2847 2523 
Q 3069 2722 3069 3097 
Q 3069 3466 2844 3686 
Q 2619 3906 2225 3913 
L 1253 3913 
L 1253 2325 
z
" transform="scale(0.015625)"/>
       <path id="Roboto-Medium-72" d="M 2159 2688 
Q 2009 2713 1850 2713 
Q 1328 2713 1147 2313 
L 1147 0 
L 388 0 
L 388 3381 
L 1113 3381 
L 1131 3003 
Q 1406 3444 1894 3444 
Q 2056 3444 2163 3400 
L 2159 2688 
z
" transform="scale(0.015625)"/>
       <path id="Roboto-Medium-63" d="M 1778 544 
Q 2063 544 2250 709 
Q 2438 875 2450 1119 
L 3166 1119 
Q 3153 803 2968 529 
Q 2784 256 2468 96 
Q 2153 -63 1788 -63 
Q 1078 -63 662 396 
Q 247 856 247 1666 
L 247 1744 
Q 247 2516 659 2980 
Q 1072 3444 1784 3444 
Q 2388 3444 2767 3092 
Q 3147 2741 3166 2169 
L 2450 2169 
Q 2438 2459 2252 2646 
Q 2066 2834 1778 2834 
Q 1409 2834 1209 2567 
Q 1009 2300 1006 1756 
L 1006 1634 
Q 1006 1084 1204 814 
Q 1403 544 1778 544 
z
" transform="scale(0.015625)"/>
       <path id="Roboto-Medium-6e" d="M 1094 3381 
L 1116 2991 
Q 1491 3444 2100 3444 
Q 3156 3444 3175 2234 
L 3175 0 
L 2416 0 
L 2416 2191 
Q 2416 2513 2277 2667 
Q 2138 2822 1822 2822 
Q 1363 2822 1138 2406 
L 1138 0 
L 378 0 
L 378 3381 
L 1094 3381 
z
" transform="scale(0.015625)"/>
       <path id="Roboto-Medium-74" d="M 1341 4203 
L 1341 3381 
L 1938 3381 
L 1938 2819 
L 1341 2819 
L 1341 931 
Q 1341 738 1417 652 
Q 1494 566 1691 566 
Q 1822 566 1956 597 
L 1956 9 
Q 1697 -63 1456 -63 
Q 581 -63 581 903 
L 581 2819 
L 25 2819 
L 25 3381 
L 581 3381 
L 581 4203 
L 1341 4203 
z
" transform="scale(0.015625)"/>
       <path id="Roboto-Medium-69" d="M 1197 0 
L 438 0 
L 438 3381 
L 1197 3381 
L 1197 0 
z
M 391 4259 
Q 391 4434 502 4550 
Q 613 4666 819 4666 
Q 1025 4666 1137 4550 
Q 1250 4434 1250 4259 
Q 1250 4088 1137 3973 
Q 1025 3859 819 3859 
Q 613 3859 502 3973 
Q 391 4088 391 4259 
z
" transform="scale(0.015625)"/>
       <path id="Roboto-Medium-42" d="M 463 0 
L 463 4550 
L 2022 4550 
Q 2794 4550 3197 4240 
Q 3600 3931 3600 3319 
Q 3600 3006 3431 2756 
Q 3263 2506 2938 2369 
Q 3306 2269 3507 1992 
Q 3709 1716 3709 1328 
Q 3709 688 3298 344 
Q 2888 0 2122 0 
L 463 0 
z
M 1253 2053 
L 1253 631 
L 2131 631 
Q 2503 631 2712 815 
Q 2922 1000 2922 1328 
Q 2922 2038 2197 2053 
L 1253 2053 
z
M 1253 2634 
L 2028 2634 
Q 2397 2634 2605 2801 
Q 2813 2969 2813 3275 
Q 2813 3613 2620 3763 
Q 2428 3913 2022 3913 
L 1253 3913 
L 1253 2634 
z
" transform="scale(0.015625)"/>
       <path id="Roboto-Medium-6b" d="M 1488 1450 
L 1150 1103 
L 1150 0 
L 391 0 
L 391 4800 
L 1150 4800 
L 1150 2031 
L 1388 2328 
L 2322 3381 
L 3234 3381 
L 1978 1972 
L 3369 0 
L 2491 0 
L 1488 1450 
z
" transform="scale(0.015625)"/>
       <path id="Roboto-Medium-73" d="M 2284 919 
Q 2284 1122 2117 1228 
Q 1950 1334 1562 1415 
Q 1175 1497 916 1622 
Q 347 1897 347 2419 
Q 347 2856 715 3150 
Q 1084 3444 1653 3444 
Q 2259 3444 2632 3144 
Q 3006 2844 3006 2366 
L 2247 2366 
Q 2247 2584 2084 2729 
Q 1922 2875 1653 2875 
Q 1403 2875 1245 2759 
Q 1088 2644 1088 2450 
Q 1088 2275 1234 2178 
Q 1381 2081 1828 1982 
Q 2275 1884 2529 1748 
Q 2784 1613 2907 1422 
Q 3031 1231 3031 959 
Q 3031 503 2653 220 
Q 2275 -63 1663 -63 
Q 1247 -63 922 87 
Q 597 238 415 500 
Q 234 763 234 1066 
L 972 1066 
Q 988 797 1175 651 
Q 1363 506 1672 506 
Q 1972 506 2128 620 
Q 2284 734 2284 919 
z
" transform="scale(0.015625)"/>
      </defs>
      <use xlink:href="#Roboto-Medium-47"/>
      <use xlink:href="#Roboto-Medium-6f" x="68.066406"/>
      <use xlink:href="#Roboto-Medium-6f" x="125"/>
      <use xlink:href="#Roboto-Medium-64" x="181.933594"/>
      <use xlink:href="#Roboto-Medium-20" x="238.378906"/>
      <use xlink:href="#Roboto-Medium-56" x="263.28125"/>
      <use xlink:href="#Roboto-Medium-61" x="327.978516"/>
      <use xlink:href="#Roboto-Medium-6c" x="382.080078"/>
      <use xlink:href="#Roboto-Medium-75" x="407.617188"/>
      <use xlink:href="#Roboto-Medium-65" x="463.183594"/>
      <use xlink:href="#Roboto-Medium-20" x="516.845703"/>
      <use xlink:href="#Roboto-Medium-50" x="541.748047"/>
      <use xlink:href="#Roboto-Medium-65" x="605.664062"/>
      <use xlink:href="#Roboto-Medium-72" x="659.326172"/>
      <use xlink:href="#Roboto-Medium-63" x="694.482422"/>
      <use xlink:href="#Roboto-Medium-65" x="746.826172"/>
      <use xlink:href="#Roboto-Medium-6e" x="800.488281"/>
      <use xlink:href="#Roboto-Medium-74" x="856.103516"/>
      <use xlink:href="#Roboto-Medium-69" x="889.355469"/>
      <use xlink:href="#Roboto-Medium-6c" x="914.892578"/>
      <use xlink:href="#Roboto-Medium-65" x="940.429688"/>
      <use xlink:href="#Roboto-Medium-20" x="994.091797"/>
      <use xlink:href="#Roboto-Medium-42" x="1018.994141"/>
      <use xlink:href="#Roboto-Medium-72" x="1082.080078"/>
      <use xlink:href="#Roboto-Medium-61" x="1117.236328"/>
      <use xlink:href="#Roboto-Medium-63" x="1171.337891"/>
      <use xlink:href="#Roboto-Medium-6b" x="1223.681641"/>
      <use xlink:href="#Roboto-Medium-65" x="1275.878906"/>
      <use xlink:href="#Roboto-Medium-74" x="1329.541016"/>
      <use xlink:href="#Roboto-Medium-73" x="1362.792969"/>
     </g>
    </g>
   </g>
   <g id="matplotlib.axis_2">
    <g id="ytick_1">
     <g id="line2d_11">
      <defs>
       <path id="ma948fcd4a2" d="M 0 0 
L -3.5 0 
" style="stroke: #58544f; stroke-width: 0.8"/>
      </defs>
      <g>
       <use xlink:href="#ma948fcd4a2" x="50.24" y="447.24964" style="fill: #58544f; stroke: #58544f; stroke-width: 0.8"/>
      </g>
     </g>
     <g id="text_12">
      <!-- 0 -->
      <g style="fill: #58544f" transform="translate(38.6925 450.24964) scale(0.08 -0.08)">
       <use xlink:href="#Roboto-Medium-30"/>
      </g>
     </g>
    </g>
    <g id="ytick_2">
     <g id="line2d_12">
      <g>
       <use xlink:href="#ma948fcd4a2" x="50.24" y="370.716307" style="fill: #58544f; stroke: #58544f; stroke-width: 0.8"/>
      </g>
     </g>
     <g id="text_13">
      <!-- 1000 -->
      <g style="fill: #58544f" transform="translate(25.05 373.716307) scale(0.08 -0.08)">
       <use xlink:href="#Roboto-Medium-31"/>
       <use xlink:href="#Roboto-Medium-30" x="56.835938"/>
       <use xlink:href="#Roboto-Medium-30" x="113.671875"/>
       <use xlink:href="#Roboto-Medium-30" x="170.507812"/>
      </g>
     </g>
    </g>
    <g id="ytick_3">
     <g id="line2d_13">
      <g>
       <use xlink:href="#ma948fcd4a2" x="50.24" y="294.182974" style="fill: #58544f; stroke: #58544f; stroke-width: 0.8"/>
      </g>
     </g>
     <g id="text_14">
      <!-- 2000 -->
      <g style="fill: #58544f" transform="translate(25.05 297.182974) scale(0.08 -0.08)">
       <use xlink:href="#Roboto-Medium-32"/>
       <use xlink:href="#Roboto-Medium-30" x="56.835938"/>
       <use xlink:href="#Roboto-Medium-30" x="113.671875"/>
       <use xlink:href="#Roboto-Medium-30" x="170.507812"/>
      </g>
     </g>
    </g>
    <g id="ytick_4">
     <g id="line2d_14">
      <g>
       <use xlink:href="#ma948fcd4a2" x="50.24" y="217.64964" style="fill: #58544f; stroke: #58544f; stroke-width: 0.8"/>
      </g>
     </g>
     <g id="text_15">
      <!-- 3000 -->
      <g style="fill: #58544f" transform="translate(25.05 220.64964) scale(0.08 -0.08)">
       <use xlink:href="#Roboto-Medium-33"/>
       <use xlink:href="#Roboto-Medium-30" x="56.835938"/>
       <use xlink:href="#Roboto-Medium-30" x="113.671875"/>
       <use xlink:href="#Roboto-Medium-30" x="170.507812"/>
      </g>
     </g>
    </g>
    <g id="ytick_5">
     <g id="line2d_15">
      <g>
       <use xlink:href="#ma948fcd4a2" x="50.24" y="141.116307" style="fill: #58544f; stroke: #58544f; stroke-width: 0.8"/>
      </g>
     </g>
     <g id="text_16">
      <!-- 4000 -->
      <g style="fill: #58544f" transform="translate(25.05 144.116307) scale(0.08 -0.08)">
       <use xlink:href="#Roboto-Medium-34"/>
       <use xlink:href="#Roboto-Medium-30" x="56.835938"/>
       <use xlink:href="#Roboto-Medium-30" x="113.671875"/>
       <use xlink:href="#Roboto-Medium-30" x="170.507812"/>
      </g>
     </g>
    </g>
    <g id="ytick_6">
     <g id="line2d_16">
      <g>
       <use xlink:href="#ma948fcd4a2" x="50.24" y="64.582973" style="fill: #58544f; stroke: #58544f; stroke-width: 0.8"/>
      </g>
     </g>
     <g id="text_17">
      <!-- 5000 -->
      <g style="fill: #58544f" transform="translate(25.05 67.582973) scale(0.08 -0.08)">
       <use xlink:href="#Roboto-Medium-35"/>
       <use xlink:href="#Roboto-Medium-30" x="56.835938"/>
       <use xlink:href="#Roboto-Medium-30" x="113.671875"/>
       <use xlink:href="#Roboto-Medium-30" x="170.507812"/>
      </g>
     </g>
    </g>
    <g id="text_18">
     <!-- Number of Distinct Customers -->
     <g style="fill: #58544f" transform="translate(19.01875 304.261226) rotate(-90) scale(0.1 -0.1)">
      <defs>
       <path id="Roboto-Medium-4e" d="M 4072 0 
L 3281 0 
L 1253 3228 
L 1253 0 
L 463 0 
L 463 4550 
L 1253 4550 
L 3288 1309 
L 3288 4550 
L 4072 4550 
L 4072 0 
z
" transform="scale(0.015625)"/>
       <path id="Roboto-Medium-6d" d="M 1103 3381 
L 1125 3028 
Q 1481 3444 2100 3444 
Q 2778 3444 3028 2925 
Q 3397 3444 4066 3444 
Q 4625 3444 4898 3134 
Q 5172 2825 5178 2222 
L 5178 0 
L 4419 0 
L 4419 2200 
Q 4419 2522 4278 2672 
Q 4138 2822 3813 2822 
Q 3553 2822 3389 2683 
Q 3225 2544 3159 2319 
L 3163 0 
L 2403 0 
L 2403 2225 
Q 2388 2822 1794 2822 
Q 1338 2822 1147 2450 
L 1147 0 
L 388 0 
L 388 3381 
L 1103 3381 
z
" transform="scale(0.015625)"/>
       <path id="Roboto-Medium-62" d="M 3356 1656 
Q 3356 869 3004 403 
Q 2653 -63 2038 -63 
Q 1444 -63 1113 366 
L 1075 0 
L 388 0 
L 388 4800 
L 1147 4800 
L 1147 3056 
Q 1475 3444 2031 3444 
Q 2650 3444 3003 2984 
Q 3356 2525 3356 1700 
L 3356 1656 
z
M 2597 1722 
Q 2597 2272 2403 2547 
Q 2209 2822 1841 2822 
Q 1347 2822 1147 2391 
L 1147 997 
Q 1350 556 1847 556 
Q 2203 556 2397 822 
Q 2591 1088 2597 1625 
L 2597 1722 
z
" transform="scale(0.015625)"/>
       <path id="Roboto-Medium-66" d="M 656 0 
L 656 2819 
L 141 2819 
L 141 3381 
L 656 3381 
L 656 3691 
Q 656 4253 968 4559 
Q 1281 4866 1844 4866 
Q 2044 4866 2269 4809 
L 2250 4216 
Q 2125 4241 1959 4241 
Q 1416 4241 1416 3681 
L 1416 3381 
L 2103 3381 
L 2103 2819 
L 1416 2819 
L 1416 0 
L 656 0 
z
" transform="scale(0.015625)"/>
       <path id="Roboto-Medium-44" d="M 463 0 
L 463 4550 
L 1806 4550 
Q 2409 4550 2876 4281 
Q 3344 4013 3600 3519 
Q 3856 3025 3856 2388 
L 3856 2159 
Q 3856 1513 3598 1022 
Q 3341 531 2864 265 
Q 2388 0 1772 0 
L 463 0 
z
M 1253 3913 
L 1253 631 
L 1769 631 
Q 2391 631 2723 1020 
Q 3056 1409 3063 2138 
L 3063 2391 
Q 3063 3131 2741 3522 
Q 2419 3913 1806 3913 
L 1253 3913 
z
" transform="scale(0.015625)"/>
       <path id="Roboto-Medium-43" d="M 3934 1481 
Q 3866 753 3397 345 
Q 2928 -63 2150 -63 
Q 1606 -63 1192 195 
Q 778 453 553 928 
Q 328 1403 319 2031 
L 319 2456 
Q 319 3100 547 3590 
Q 775 4081 1201 4347 
Q 1628 4613 2188 4613 
Q 2941 4613 3400 4203 
Q 3859 3794 3934 3047 
L 3147 3047 
Q 3091 3538 2861 3755 
Q 2631 3972 2188 3972 
Q 1672 3972 1395 3595 
Q 1119 3219 1113 2491 
L 1113 2088 
Q 1113 1350 1377 962 
Q 1641 575 2150 575 
Q 2616 575 2850 784 
Q 3084 994 3147 1481 
L 3934 1481 
z
" transform="scale(0.015625)"/>
      </defs>
      <use xlink:href="#Roboto-Medium-4e"/>
      <use xlink:href="#Roboto-Medium-75" x="70.996094"/>
      <use xlink:href="#Roboto-Medium-6d" x="126.5625"/>
      <use xlink:href="#Roboto-Medium-62" x="213.574219"/>
      <use xlink:href="#Roboto-Medium-65" x="269.873047"/>
      <use xlink:href="#Roboto-Medium-72" x="323.535156"/>
      <use xlink:href="#Roboto-Medium-20" x="358.691406"/>
      <use xlink:href="#Roboto-Medium-6f" x="383.59375"/>
      <use xlink:href="#Roboto-Medium-66" x="440.527344"/>
      <use xlink:href="#Roboto-Medium-20" x="475.976562"/>
      <use xlink:href="#Roboto-Medium-44" x="500.878906"/>
      <use xlink:href="#Roboto-Medium-69" x="566.210938"/>
      <use xlink:href="#Roboto-Medium-73" x="591.748047"/>
      <use xlink:href="#Roboto-Medium-74" x="643.359375"/>
      <use xlink:href="#Roboto-Medium-69" x="676.611328"/>
      <use xlink:href="#Roboto-Medium-6e" x="702.148438"/>
      <use xlink:href="#Roboto-Medium-63" x="757.763672"/>
      <use xlink:href="#Roboto-Medium-74" x="810.107422"/>
      <use xlink:href="#Roboto-Medium-20" x="843.359375"/>
      <use xlink:href="#Roboto-Medium-43" x="868.261719"/>
      <use xlink:href="#Roboto-Medium-75" x="933.544922"/>
      <use xlink:href="#Roboto-Medium-73" x="989.111328"/>
      <use xlink:href="#Roboto-Medium-74" x="1040.722656"/>
      <use xlink:href="#Roboto-Medium-6f" x="1073.974609"/>
      <use xlink:href="#Roboto-Medium-6d" x="1130.908203"/>
      <use xlink:href="#Roboto-Medium-65" x="1217.919922"/>
      <use xlink:href="#Roboto-Medium-72" x="1271.582031"/>
      <use xlink:href="#Roboto-Medium-73" x="1306.738281"/>
     </g>
    </g>
   </g>
   <g id="patch_13">
    <path d="M 50.24 447.24964 
L 50.24 25.44 
" style="fill: none; stroke: #58544f; stroke-width: 0.8; stroke-linejoin: miter; stroke-linecap: square"/>
   </g>
   <g id="patch_14">
    <path d="M 997.2 447.24964 
L 997.2 25.44 
" style="fill: none; stroke: #58544f; stroke-width: 0.8; stroke-linejoin: miter; stroke-linecap: square"/>
   </g>
   <g id="patch_15">
    <path d="M 50.24 447.24964 
L 997.2 447.24964 
" style="fill: none; stroke: #58544f; stroke-width: 0.8; stroke-linejoin: miter; stroke-linecap: square"/>
   </g>
   <g id="patch_16">
    <path d="M 50.24 25.44 
L 997.2 25.44 
" style="fill: none; stroke: #58544f; stroke-width: 0.8; stroke-linejoin: miter; stroke-linecap: square"/>
   </g>
   <g id="text_19">
    <!-- 5119 -->
    <g transform="translate(86.21925 53.444257) scale(0.1 -0.1)">
     <use xlink:href="#Roboto-Medium-35"/>
     <use xlink:href="#Roboto-Medium-31" x="56.835938"/>
     <use xlink:href="#Roboto-Medium-31" x="113.671875"/>
     <use xlink:href="#Roboto-Medium-39" x="170.507812"/>
    </g>
   </g>
   <g id="text_20">
    <!-- 4633 -->
    <g transform="translate(180.91525 90.639457) scale(0.1 -0.1)">
     <use xlink:href="#Roboto-Medium-34"/>
     <use xlink:href="#Roboto-Medium-36" x="56.835938"/>
     <use xlink:href="#Roboto-Medium-33" x="113.671875"/>
     <use xlink:href="#Roboto-Medium-33" x="170.507812"/>
    </g>
   </g>
   <g id="text_21">
    <!-- 4740 -->
    <g transform="translate(275.61125 82.45039) scale(0.1 -0.1)">
     <use xlink:href="#Roboto-Medium-34"/>
     <use xlink:href="#Roboto-Medium-37" x="56.835938"/>
     <use xlink:href="#Roboto-Medium-34" x="113.671875"/>
     <use xlink:href="#Roboto-Medium-30" x="170.507812"/>
    </g>
   </g>
   <g id="text_22">
    <!-- 4823 -->
    <g transform="translate(370.30725 76.098123) scale(0.1 -0.1)">
     <use xlink:href="#Roboto-Medium-34"/>
     <use xlink:href="#Roboto-Medium-38" x="56.835938"/>
     <use xlink:href="#Roboto-Medium-32" x="113.671875"/>
     <use xlink:href="#Roboto-Medium-33" x="170.507812"/>
    </g>
   </g>
   <g id="text_23">
    <!-- 5249 -->
    <g transform="translate(465.00325 43.494923) scale(0.1 -0.1)">
     <use xlink:href="#Roboto-Medium-35"/>
     <use xlink:href="#Roboto-Medium-32" x="56.835938"/>
     <use xlink:href="#Roboto-Medium-34" x="113.671875"/>
     <use xlink:href="#Roboto-Medium-39" x="170.507812"/>
    </g>
   </g>
   <g id="text_24">
    <!-- 4403 -->
    <g transform="translate(559.69925 108.242123) scale(0.1 -0.1)">
     <use xlink:href="#Roboto-Medium-34"/>
     <use xlink:href="#Roboto-Medium-34" x="56.835938"/>
     <use xlink:href="#Roboto-Medium-30" x="113.671875"/>
     <use xlink:href="#Roboto-Medium-33" x="170.507812"/>
    </g>
   </g>
   <g id="text_25">
    <!-- 4828 -->
    <g transform="translate(654.39525 75.715457) scale(0.1 -0.1)">
     <use xlink:href="#Roboto-Medium-34"/>
     <use xlink:href="#Roboto-Medium-38" x="56.835938"/>
     <use xlink:href="#Roboto-Medium-32" x="113.671875"/>
     <use xlink:href="#Roboto-Medium-38" x="170.507812"/>
    </g>
   </g>
   <g id="text_26">
    <!-- 4829 -->
    <g transform="translate(749.09125 75.638923) scale(0.1 -0.1)">
     <use xlink:href="#Roboto-Medium-34"/>
     <use xlink:href="#Roboto-Medium-38" x="56.835938"/>
     <use xlink:href="#Roboto-Medium-32" x="113.671875"/>
     <use xlink:href="#Roboto-Medium-39" x="170.507812"/>
    </g>
   </g>
   <g id="text_27">
    <!-- 4829 -->
    <g transform="translate(843.78725 75.638923) scale(0.1 -0.1)">
     <use xlink:href="#Roboto-Medium-34"/>
     <use xlink:href="#Roboto-Medium-38" x="56.835938"/>
     <use xlink:href="#Roboto-Medium-32" x="113.671875"/>
     <use xlink:href="#Roboto-Medium-39" x="170.507812"/>
    </g>
   </g>
   <g id="text_28">
    <!-- 4826 -->
    <g transform="translate(938.48325 75.868523) scale(0.1 -0.1)">
     <use xlink:href="#Roboto-Medium-34"/>
     <use xlink:href="#Roboto-Medium-38" x="56.835938"/>
     <use xlink:href="#Roboto-Medium-32" x="113.671875"/>
     <use xlink:href="#Roboto-Medium-36" x="170.507812"/>
    </g>
   </g>
   <g id="text_29">
    <!-- Distribution of Distinct Customers by Good Value Percentiles -->
    <g transform="translate(360.536875 19.44) scale(0.12 -0.12)">
     <defs>
      <path id="Roboto-Medium-79" d="M 1572 1088 
L 2259 3381 
L 3069 3381 
L 1725 -513 
Q 1416 -1366 675 -1366 
Q 509 -1366 309 -1309 
L 309 -722 
L 453 -731 
Q 741 -731 886 -626 
Q 1031 -522 1116 -275 
L 1225 16 
L 38 3381 
L 856 3381 
L 1572 1088 
z
" transform="scale(0.015625)"/>
     </defs>
     <use xlink:href="#Roboto-Medium-44"/>
     <use xlink:href="#Roboto-Medium-69" x="65.332031"/>
     <use xlink:href="#Roboto-Medium-73" x="90.869141"/>
     <use xlink:href="#Roboto-Medium-74" x="142.480469"/>
     <use xlink:href="#Roboto-Medium-72" x="175.732422"/>
     <use xlink:href="#Roboto-Medium-69" x="210.888672"/>
     <use xlink:href="#Roboto-Medium-62" x="236.425781"/>
     <use xlink:href="#Roboto-Medium-75" x="292.724609"/>
     <use xlink:href="#Roboto-Medium-74" x="348.291016"/>
     <use xlink:href="#Roboto-Medium-69" x="381.542969"/>
     <use xlink:href="#Roboto-Medium-6f" x="407.080078"/>
     <use xlink:href="#Roboto-Medium-6e" x="464.013672"/>
     <use xlink:href="#Roboto-Medium-20" x="519.628906"/>
     <use xlink:href="#Roboto-Medium-6f" x="544.53125"/>
     <use xlink:href="#Roboto-Medium-66" x="601.464844"/>
     <use xlink:href="#Roboto-Medium-20" x="636.914062"/>
     <use xlink:href="#Roboto-Medium-44" x="661.816406"/>
     <use xlink:href="#Roboto-Medium-69" x="727.148438"/>
     <use xlink:href="#Roboto-Medium-73" x="752.685547"/>
     <use xlink:href="#Roboto-Medium-74" x="804.296875"/>
     <use xlink:href="#Roboto-Medium-69" x="837.548828"/>
     <use xlink:href="#Roboto-Medium-6e" x="863.085938"/>
     <use xlink:href="#Roboto-Medium-63" x="918.701172"/>
     <use xlink:href="#Roboto-Medium-74" x="971.044922"/>
     <use xlink:href="#Roboto-Medium-20" x="1004.296875"/>
     <use xlink:href="#Roboto-Medium-43" x="1029.199219"/>
     <use xlink:href="#Roboto-Medium-75" x="1094.482422"/>
     <use xlink:href="#Roboto-Medium-73" x="1150.048828"/>
     <use xlink:href="#Roboto-Medium-74" x="1201.660156"/>
     <use xlink:href="#Roboto-Medium-6f" x="1234.912109"/>
     <use xlink:href="#Roboto-Medium-6d" x="1291.845703"/>
     <use xlink:href="#Roboto-Medium-65" x="1378.857422"/>
     <use xlink:href="#Roboto-Medium-72" x="1432.519531"/>
     <use xlink:href="#Roboto-Medium-73" x="1467.675781"/>
     <use xlink:href="#Roboto-Medium-20" x="1519.287109"/>
     <use xlink:href="#Roboto-Medium-62" x="1544.189453"/>
     <use xlink:href="#Roboto-Medium-79" x="1600.488281"/>
     <use xlink:href="#Roboto-Medium-20" x="1649.169922"/>
     <use xlink:href="#Roboto-Medium-47" x="1674.072266"/>
     <use xlink:href="#Roboto-Medium-6f" x="1742.138672"/>
     <use xlink:href="#Roboto-Medium-6f" x="1799.072266"/>
     <use xlink:href="#Roboto-Medium-64" x="1856.005859"/>
     <use xlink:href="#Roboto-Medium-20" x="1912.451172"/>
     <use xlink:href="#Roboto-Medium-56" x="1937.353516"/>
     <use xlink:href="#Roboto-Medium-61" x="2002.050781"/>
     <use xlink:href="#Roboto-Medium-6c" x="2056.152344"/>
     <use xlink:href="#Roboto-Medium-75" x="2081.689453"/>
     <use xlink:href="#Roboto-Medium-65" x="2137.255859"/>
     <use xlink:href="#Roboto-Medium-20" x="2190.917969"/>
     <use xlink:href="#Roboto-Medium-50" x="2215.820312"/>
     <use xlink:href="#Roboto-Medium-65" x="2279.736328"/>
     <use xlink:href="#Roboto-Medium-72" x="2333.398438"/>
     <use xlink:href="#Roboto-Medium-63" x="2368.554688"/>
     <use xlink:href="#Roboto-Medium-65" x="2420.898438"/>
     <use xlink:href="#Roboto-Medium-6e" x="2474.560547"/>
     <use xlink:href="#Roboto-Medium-74" x="2530.175781"/>
     <use xlink:href="#Roboto-Medium-69" x="2563.427734"/>
     <use xlink:href="#Roboto-Medium-6c" x="2588.964844"/>
     <use xlink:href="#Roboto-Medium-65" x="2614.501953"/>
     <use xlink:href="#Roboto-Medium-73" x="2668.164062"/>
    </g>
   </g>
  </g>
 </g>
 <defs>
  <clipPath id="p1bb3439ede">
   <rect x="50.24" y="25.44" width="946.96" height="421.80964"/>
  </clipPath>
 </defs>
</svg>
