<?xml version="1.0" encoding="utf-8" standalone="no"?>
<!DOCTYPE svg PUBLIC "-//W3C//DTD SVG 1.1//EN"
  "http://www.w3.org/Graphics/SVG/1.1/DTD/svg11.dtd">
<svg xmlns:xlink="http://www.w3.org/1999/xlink" width="864pt" height="432pt" viewBox="0 0 864 432" xmlns="http://www.w3.org/2000/svg" version="1.1">
 <metadata>
  <rdf:RDF xmlns:dc="http://purl.org/dc/elements/1.1/" xmlns:cc="http://creativecommons.org/ns#" xmlns:rdf="http://www.w3.org/1999/02/22-rdf-syntax-ns#">
   <cc:Work>
    <dc:type rdf:resource="http://purl.org/dc/dcmitype/StillImage"/>
    <dc:date>2024-07-25T15:50:27.618544</dc:date>
    <dc:format>image/svg+xml</dc:format>
    <dc:creator>
     <cc:Agent>
      <dc:title>Matplotlib v3.8.4, https://matplotlib.org/</dc:title>
     </cc:Agent>
    </dc:creator>
   </cc:Work>
  </rdf:RDF>
 </metadata>
 <defs>
  <style type="text/css">*{stroke-linejoin: round; stroke-linecap: butt}</style>
 </defs>
 <g id="figure_1">
  <g id="patch_1">
   <path d="M 0 432 
L 864 432 
L 864 0 
L 0 0 
z
" style="fill: #ffffff"/>
  </g>
  <g id="axes_1">
   <g id="patch_2">
    <path d="M 54.83 351.464336 
L 853.2 351.464336 
L 853.2 25.44 
L 54.83 25.44 
z
" style="fill: #ffffff"/>
   </g>
   <g id="patch_3">
    <path d="M 74.78925 351.464336 
L 114.70775 351.464336 
L 114.70775 40.964968 
L 74.78925 40.964968 
z
" clip-path="url(#pa05a7c2820)" style="fill: #0088ed"/>
   </g>
   <g id="patch_4">
    <path d="M 154.62625 351.464336 
L 194.54475 351.464336 
L 194.54475 351.464336 
L 154.62625 351.464336 
z
" clip-path="url(#pa05a7c2820)" style="fill: #0088ed"/>
   </g>
   <g id="patch_5">
    <path d="M 234.46325 351.464336 
L 274.38175 351.464336 
L 274.38175 351.464336 
L 234.46325 351.464336 
z
" clip-path="url(#pa05a7c2820)" style="fill: #0088ed"/>
   </g>
   <g id="patch_6">
    <path d="M 314.30025 351.464336 
L 354.21875 351.464336 
L 354.21875 351.464336 
L 314.30025 351.464336 
z
" clip-path="url(#pa05a7c2820)" style="fill: #0088ed"/>
   </g>
   <g id="patch_7">
    <path d="M 394.13725 351.464336 
L 434.05575 351.464336 
L 434.05575 351.464336 
L 394.13725 351.464336 
z
" clip-path="url(#pa05a7c2820)" style="fill: #0088ed"/>
   </g>
   <g id="patch_8">
    <path d="M 473.97425 351.464336 
L 513.89275 351.464336 
L 513.89275 351.464336 
L 473.97425 351.464336 
z
" clip-path="url(#pa05a7c2820)" style="fill: #0088ed"/>
   </g>
   <g id="patch_9">
    <path d="M 553.81125 351.464336 
L 593.72975 351.464336 
L 593.72975 351.464336 
L 553.81125 351.464336 
z
" clip-path="url(#pa05a7c2820)" style="fill: #0088ed"/>
   </g>
   <g id="patch_10">
    <path d="M 633.64825 351.464336 
L 673.56675 351.464336 
L 673.56675 351.464336 
L 633.64825 351.464336 
z
" clip-path="url(#pa05a7c2820)" style="fill: #0088ed"/>
   </g>
   <g id="patch_11">
    <path d="M 713.48525 351.464336 
L 753.40375 351.464336 
L 753.40375 351.464336 
L 713.48525 351.464336 
z
" clip-path="url(#pa05a7c2820)" style="fill: #0088ed"/>
   </g>
   <g id="patch_12">
    <path d="M 793.32225 351.464336 
L 833.24075 351.464336 
L 833.24075 351.451704 
L 793.32225 351.451704 
z
" clip-path="url(#pa05a7c2820)" style="fill: #0088ed"/>
   </g>
   <g id="matplotlib.axis_1">
    <g id="xtick_1">
     <g id="line2d_1">
      <defs>
       <path id="mb59653905d" d="M 0 0 
L 0 3.5 
" style="stroke: #58544f; stroke-width: 0.8"/>
      </defs>
      <g>
       <use xlink:href="#mb59653905d" x="94.7485" y="351.464336" style="fill: #58544f; stroke: #58544f; stroke-width: 0.8"/>
      </g>
     </g>
     <g id="text_1">
      <!-- $1- -->
      <g style="fill: #58544f" transform="translate(79.071943 370.994268) rotate(-45) scale(0.08 -0.08)">
       <defs>
        <path id="Roboto-Medium-24" d="M 2559 1188 
Q 2559 1453 2390 1626 
Q 2222 1800 1828 1939 
Q 1434 2078 1216 2197 
Q 488 2588 488 3353 
Q 488 3872 803 4206 
Q 1119 4541 1659 4603 
L 1659 5284 
L 2159 5284 
L 2159 4597 
Q 2703 4519 3000 4136 
Q 3297 3753 3297 3141 
L 2541 3141 
Q 2541 3534 2364 3761 
Q 2188 3988 1884 3988 
Q 1584 3988 1415 3825 
Q 1247 3663 1247 3359 
Q 1247 3088 1414 2923 
Q 1581 2759 1981 2612 
Q 2381 2466 2609 2341 
Q 2838 2216 2994 2055 
Q 3150 1894 3234 1684 
Q 3319 1475 3319 1194 
Q 3319 666 2995 337 
Q 2672 9 2094 -50 
L 2094 -659 
L 1597 -659 
L 1597 -53 
Q 978 16 645 391 
Q 313 766 313 1384 
L 1072 1384 
Q 1072 991 1270 775 
Q 1469 559 1831 559 
Q 2188 559 2373 731 
Q 2559 903 2559 1188 
z
" transform="scale(0.015625)"/>
        <path id="Roboto-Medium-31" d="M 2397 0 
L 1641 0 
L 1641 3653 
L 525 3272 
L 525 3913 
L 2300 4566 
L 2397 4566 
L 2397 0 
z
" transform="scale(0.015625)"/>
        <path id="Roboto-Medium-2d" d="M 1863 1628 
L 222 1628 
L 222 2241 
L 1863 2241 
L 1863 1628 
z
" transform="scale(0.015625)"/>
       </defs>
       <use xlink:href="#Roboto-Medium-24"/>
       <use xlink:href="#Roboto-Medium-31" x="56.835938"/>
       <use xlink:href="#Roboto-Medium-2d" x="113.671875"/>
      </g>
      <!-- $918521448 -->
      <g style="fill: #58544f" transform="translate(61.443771 401.102875) rotate(-45) scale(0.08 -0.08)">
       <defs>
        <path id="Roboto-Medium-39" d="M 2494 1903 
Q 2113 1500 1603 1500 
Q 1003 1500 647 1920 
Q 291 2341 291 3025 
Q 291 3475 472 3840 
Q 653 4206 987 4409 
Q 1322 4613 1763 4613 
Q 2450 4613 2853 4100 
Q 3256 3588 3256 2728 
L 3256 2516 
Q 3256 1284 2700 637 
Q 2144 -9 1041 -19 
L 950 -19 
L 950 609 
L 1059 609 
Q 1731 619 2090 933 
Q 2450 1247 2494 1903 
z
M 1763 2094 
Q 1991 2094 2191 2225 
Q 2391 2356 2500 2588 
L 2500 2884 
Q 2500 3388 2294 3694 
Q 2088 4000 1759 4000 
Q 1431 4000 1236 3729 
Q 1041 3459 1041 3047 
Q 1041 2619 1237 2356 
Q 1434 2094 1763 2094 
z
" transform="scale(0.015625)"/>
        <path id="Roboto-Medium-38" d="M 3206 3350 
Q 3206 3016 3034 2755 
Q 2863 2494 2566 2344 
Q 2922 2178 3114 1890 
Q 3306 1603 3306 1241 
Q 3306 641 2900 289 
Q 2494 -63 1819 -63 
Q 1141 -63 733 290 
Q 325 644 325 1241 
Q 325 1606 519 1897 
Q 713 2188 1063 2344 
Q 769 2494 598 2755 
Q 428 3016 428 3350 
Q 428 3931 803 4272 
Q 1178 4613 1816 4613 
Q 2456 4613 2831 4272 
Q 3206 3931 3206 3350 
z
M 2547 1278 
Q 2547 1616 2345 1823 
Q 2144 2031 1812 2031 
Q 1481 2031 1282 1825 
Q 1084 1619 1084 1278 
Q 1084 944 1279 744 
Q 1475 544 1819 544 
Q 2163 544 2355 737 
Q 2547 931 2547 1278 
z
M 2450 3322 
Q 2450 3619 2278 3811 
Q 2106 4003 1815 4003 
Q 1525 4003 1356 3820 
Q 1188 3638 1188 3322 
Q 1188 3009 1358 2825 
Q 1528 2641 1818 2641 
Q 2109 2641 2279 2825 
Q 2450 3009 2450 3322 
z
" transform="scale(0.015625)"/>
        <path id="Roboto-Medium-35" d="M 544 2256 
L 791 4550 
L 3234 4550 
L 3234 3894 
L 1422 3894 
L 1297 2806 
Q 1613 2988 2009 2988 
Q 2659 2988 3020 2572 
Q 3381 2156 3381 1453 
Q 3381 759 2981 348 
Q 2581 -63 1884 -63 
Q 1259 -63 848 292 
Q 438 647 403 1228 
L 1138 1228 
Q 1181 897 1375 720 
Q 1569 544 1881 544 
Q 2231 544 2426 794 
Q 2622 1044 2622 1475 
Q 2622 1891 2406 2133 
Q 2191 2375 1813 2375 
Q 1606 2375 1462 2320 
Q 1319 2266 1150 2106 
L 544 2256 
z
" transform="scale(0.015625)"/>
        <path id="Roboto-Medium-32" d="M 3400 0 
L 341 0 
L 341 522 
L 1856 2175 
Q 2184 2541 2323 2786 
Q 2463 3031 2463 3278 
Q 2463 3603 2280 3803 
Q 2097 4003 1788 4003 
Q 1419 4003 1216 3778 
Q 1013 3553 1013 3163 
L 253 3163 
Q 253 3578 442 3911 
Q 631 4244 982 4428 
Q 1334 4613 1794 4613 
Q 2456 4613 2839 4280 
Q 3222 3947 3222 3359 
Q 3222 3019 3030 2645 
Q 2838 2272 2400 1797 
L 1288 606 
L 3400 606 
L 3400 0 
z
" transform="scale(0.015625)"/>
        <path id="Roboto-Medium-34" d="M 2909 1622 
L 3475 1622 
L 3475 1013 
L 2909 1013 
L 2909 0 
L 2150 0 
L 2150 1013 
L 184 1013 
L 163 1475 
L 2125 4550 
L 2909 4550 
L 2909 1622 
z
M 959 1622 
L 2150 1622 
L 2150 3522 
L 2094 3422 
L 959 1622 
z
" transform="scale(0.015625)"/>
       </defs>
       <use xlink:href="#Roboto-Medium-24"/>
       <use xlink:href="#Roboto-Medium-39" x="56.835938"/>
       <use xlink:href="#Roboto-Medium-31" x="113.671875"/>
       <use xlink:href="#Roboto-Medium-38" x="170.507812"/>
       <use xlink:href="#Roboto-Medium-35" x="227.34375"/>
       <use xlink:href="#Roboto-Medium-32" x="284.179688"/>
       <use xlink:href="#Roboto-Medium-31" x="341.015625"/>
       <use xlink:href="#Roboto-Medium-34" x="397.851562"/>
       <use xlink:href="#Roboto-Medium-34" x="454.6875"/>
       <use xlink:href="#Roboto-Medium-38" x="511.523438"/>
      </g>
     </g>
    </g>
    <g id="xtick_2">
     <g id="line2d_2">
      <g>
       <use xlink:href="#mb59653905d" x="174.5855" y="351.464336" style="fill: #58544f; stroke: #58544f; stroke-width: 0.8"/>
      </g>
     </g>
     <g id="text_2">
      <!-- $918521448- -->
      <g style="fill: #58544f" transform="translate(133.184398 396.718813) rotate(-45) scale(0.08 -0.08)">
       <use xlink:href="#Roboto-Medium-24"/>
       <use xlink:href="#Roboto-Medium-39" x="56.835938"/>
       <use xlink:href="#Roboto-Medium-31" x="113.671875"/>
       <use xlink:href="#Roboto-Medium-38" x="170.507812"/>
       <use xlink:href="#Roboto-Medium-35" x="227.34375"/>
       <use xlink:href="#Roboto-Medium-32" x="284.179688"/>
       <use xlink:href="#Roboto-Medium-31" x="341.015625"/>
       <use xlink:href="#Roboto-Medium-34" x="397.851562"/>
       <use xlink:href="#Roboto-Medium-34" x="454.6875"/>
       <use xlink:href="#Roboto-Medium-38" x="511.523438"/>
       <use xlink:href="#Roboto-Medium-2d" x="568.359375"/>
      </g>
      <!-- $1837042896 -->
      <g style="fill: #58544f" transform="translate(138.065203 404.318443) rotate(-45) scale(0.08 -0.08)">
       <defs>
        <path id="Roboto-Medium-33" d="M 1219 2622 
L 1681 2622 
Q 2031 2625 2236 2803 
Q 2441 2981 2441 3319 
Q 2441 3644 2270 3823 
Q 2100 4003 1750 4003 
Q 1444 4003 1247 3826 
Q 1050 3650 1050 3366 
L 291 3366 
Q 291 3716 477 4003 
Q 663 4291 995 4452 
Q 1328 4613 1741 4613 
Q 2422 4613 2811 4270 
Q 3200 3928 3200 3319 
Q 3200 3013 3004 2742 
Q 2809 2472 2500 2334 
Q 2875 2206 3070 1931 
Q 3266 1656 3266 1275 
Q 3266 663 2845 300 
Q 2425 -63 1741 -63 
Q 1084 -63 665 287 
Q 247 638 247 1219 
L 1006 1219 
Q 1006 919 1207 731 
Q 1409 544 1750 544 
Q 2103 544 2306 731 
Q 2509 919 2509 1275 
Q 2509 1634 2296 1828 
Q 2084 2022 1666 2022 
L 1219 2022 
L 1219 2622 
z
" transform="scale(0.015625)"/>
        <path id="Roboto-Medium-37" d="M 3369 4128 
L 1550 0 
L 753 0 
L 2569 3941 
L 216 3941 
L 216 4550 
L 3369 4550 
L 3369 4128 
z
" transform="scale(0.015625)"/>
        <path id="Roboto-Medium-30" d="M 3306 1916 
Q 3306 934 2939 435 
Q 2572 -63 1822 -63 
Q 1084 -63 711 423 
Q 338 909 328 1863 
L 328 2650 
Q 328 3631 695 4122 
Q 1063 4613 1816 4613 
Q 2563 4613 2930 4134 
Q 3297 3656 3306 2703 
L 3306 1916 
z
M 2547 2766 
Q 2547 3406 2372 3704 
Q 2197 4003 1816 4003 
Q 1444 4003 1269 3720 
Q 1094 3438 1084 2838 
L 1084 1806 
Q 1084 1169 1262 856 
Q 1441 544 1822 544 
Q 2188 544 2363 833 
Q 2538 1122 2547 1738 
L 2547 2766 
z
" transform="scale(0.015625)"/>
        <path id="Roboto-Medium-36" d="M 2703 4572 
L 2703 3944 
L 2609 3944 
Q 1972 3934 1590 3593 
Q 1209 3253 1138 2628 
Q 1503 3013 2072 3013 
Q 2675 3013 3023 2588 
Q 3372 2163 3372 1491 
Q 3372 797 2964 367 
Q 2556 -63 1894 -63 
Q 1213 -63 789 440 
Q 366 944 366 1759 
L 366 2019 
Q 366 3216 948 3894 
Q 1531 4572 2625 4572 
L 2703 4572 
z
M 1888 2400 
Q 1638 2400 1430 2259 
Q 1222 2119 1125 1884 
L 1125 1653 
Q 1125 1147 1337 848 
Q 1550 550 1887 550 
Q 2225 550 2422 803 
Q 2619 1056 2619 1468 
Q 2619 1881 2419 2140 
Q 2219 2400 1888 2400 
z
" transform="scale(0.015625)"/>
       </defs>
       <use xlink:href="#Roboto-Medium-24"/>
       <use xlink:href="#Roboto-Medium-31" x="56.835938"/>
       <use xlink:href="#Roboto-Medium-38" x="113.671875"/>
       <use xlink:href="#Roboto-Medium-33" x="170.507812"/>
       <use xlink:href="#Roboto-Medium-37" x="227.34375"/>
       <use xlink:href="#Roboto-Medium-30" x="284.179688"/>
       <use xlink:href="#Roboto-Medium-34" x="341.015625"/>
       <use xlink:href="#Roboto-Medium-32" x="397.851562"/>
       <use xlink:href="#Roboto-Medium-38" x="454.6875"/>
       <use xlink:href="#Roboto-Medium-39" x="511.523438"/>
       <use xlink:href="#Roboto-Medium-36" x="568.359375"/>
      </g>
     </g>
    </g>
    <g id="xtick_3">
     <g id="line2d_3">
      <g>
       <use xlink:href="#mb59653905d" x="254.4225" y="351.464336" style="fill: #58544f; stroke: #58544f; stroke-width: 0.8"/>
      </g>
     </g>
     <g id="text_3">
      <!-- $1837042896- -->
      <g style="fill: #58544f" transform="translate(209.80583 399.934381) rotate(-45) scale(0.08 -0.08)">
       <use xlink:href="#Roboto-Medium-24"/>
       <use xlink:href="#Roboto-Medium-31" x="56.835938"/>
       <use xlink:href="#Roboto-Medium-38" x="113.671875"/>
       <use xlink:href="#Roboto-Medium-33" x="170.507812"/>
       <use xlink:href="#Roboto-Medium-37" x="227.34375"/>
       <use xlink:href="#Roboto-Medium-30" x="284.179688"/>
       <use xlink:href="#Roboto-Medium-34" x="341.015625"/>
       <use xlink:href="#Roboto-Medium-32" x="397.851562"/>
       <use xlink:href="#Roboto-Medium-38" x="454.6875"/>
       <use xlink:href="#Roboto-Medium-39" x="511.523438"/>
       <use xlink:href="#Roboto-Medium-36" x="568.359375"/>
       <use xlink:href="#Roboto-Medium-2d" x="625.195312"/>
      </g>
      <!-- $2755564343 -->
      <g style="fill: #58544f" transform="translate(217.902203 404.318443) rotate(-45) scale(0.08 -0.08)">
       <use xlink:href="#Roboto-Medium-24"/>
       <use xlink:href="#Roboto-Medium-32" x="56.835938"/>
       <use xlink:href="#Roboto-Medium-37" x="113.671875"/>
       <use xlink:href="#Roboto-Medium-35" x="170.507812"/>
       <use xlink:href="#Roboto-Medium-35" x="227.34375"/>
       <use xlink:href="#Roboto-Medium-35" x="284.179688"/>
       <use xlink:href="#Roboto-Medium-36" x="341.015625"/>
       <use xlink:href="#Roboto-Medium-34" x="397.851562"/>
       <use xlink:href="#Roboto-Medium-33" x="454.6875"/>
       <use xlink:href="#Roboto-Medium-34" x="511.523438"/>
       <use xlink:href="#Roboto-Medium-33" x="568.359375"/>
      </g>
     </g>
    </g>
    <g id="xtick_4">
     <g id="line2d_4">
      <g>
       <use xlink:href="#mb59653905d" x="334.2595" y="351.464336" style="fill: #58544f; stroke: #58544f; stroke-width: 0.8"/>
      </g>
     </g>
     <g id="text_4">
      <!-- $2755564343- -->
      <g style="fill: #58544f" transform="translate(289.64283 399.934381) rotate(-45) scale(0.08 -0.08)">
       <use xlink:href="#Roboto-Medium-24"/>
       <use xlink:href="#Roboto-Medium-32" x="56.835938"/>
       <use xlink:href="#Roboto-Medium-37" x="113.671875"/>
       <use xlink:href="#Roboto-Medium-35" x="170.507812"/>
       <use xlink:href="#Roboto-Medium-35" x="227.34375"/>
       <use xlink:href="#Roboto-Medium-35" x="284.179688"/>
       <use xlink:href="#Roboto-Medium-36" x="341.015625"/>
       <use xlink:href="#Roboto-Medium-34" x="397.851562"/>
       <use xlink:href="#Roboto-Medium-33" x="454.6875"/>
       <use xlink:href="#Roboto-Medium-34" x="511.523438"/>
       <use xlink:href="#Roboto-Medium-33" x="568.359375"/>
       <use xlink:href="#Roboto-Medium-2d" x="625.195312"/>
      </g>
      <!-- $3674085790 -->
      <g style="fill: #58544f" transform="translate(297.739203 404.318443) rotate(-45) scale(0.08 -0.08)">
       <use xlink:href="#Roboto-Medium-24"/>
       <use xlink:href="#Roboto-Medium-33" x="56.835938"/>
       <use xlink:href="#Roboto-Medium-36" x="113.671875"/>
       <use xlink:href="#Roboto-Medium-37" x="170.507812"/>
       <use xlink:href="#Roboto-Medium-34" x="227.34375"/>
       <use xlink:href="#Roboto-Medium-30" x="284.179688"/>
       <use xlink:href="#Roboto-Medium-38" x="341.015625"/>
       <use xlink:href="#Roboto-Medium-35" x="397.851562"/>
       <use xlink:href="#Roboto-Medium-37" x="454.6875"/>
       <use xlink:href="#Roboto-Medium-39" x="511.523438"/>
       <use xlink:href="#Roboto-Medium-30" x="568.359375"/>
      </g>
     </g>
    </g>
    <g id="xtick_5">
     <g id="line2d_5">
      <g>
       <use xlink:href="#mb59653905d" x="414.0965" y="351.464336" style="fill: #58544f; stroke: #58544f; stroke-width: 0.8"/>
      </g>
     </g>
     <g id="text_5">
      <!-- $3674085790- -->
      <g style="fill: #58544f" transform="translate(369.47983 399.934381) rotate(-45) scale(0.08 -0.08)">
       <use xlink:href="#Roboto-Medium-24"/>
       <use xlink:href="#Roboto-Medium-33" x="56.835938"/>
       <use xlink:href="#Roboto-Medium-36" x="113.671875"/>
       <use xlink:href="#Roboto-Medium-37" x="170.507812"/>
       <use xlink:href="#Roboto-Medium-34" x="227.34375"/>
       <use xlink:href="#Roboto-Medium-30" x="284.179688"/>
       <use xlink:href="#Roboto-Medium-38" x="341.015625"/>
       <use xlink:href="#Roboto-Medium-35" x="397.851562"/>
       <use xlink:href="#Roboto-Medium-37" x="454.6875"/>
       <use xlink:href="#Roboto-Medium-39" x="511.523438"/>
       <use xlink:href="#Roboto-Medium-30" x="568.359375"/>
       <use xlink:href="#Roboto-Medium-2d" x="625.195312"/>
      </g>
      <!-- $4592607238 -->
      <g style="fill: #58544f" transform="translate(377.576203 404.318443) rotate(-45) scale(0.08 -0.08)">
       <use xlink:href="#Roboto-Medium-24"/>
       <use xlink:href="#Roboto-Medium-34" x="56.835938"/>
       <use xlink:href="#Roboto-Medium-35" x="113.671875"/>
       <use xlink:href="#Roboto-Medium-39" x="170.507812"/>
       <use xlink:href="#Roboto-Medium-32" x="227.34375"/>
       <use xlink:href="#Roboto-Medium-36" x="284.179688"/>
       <use xlink:href="#Roboto-Medium-30" x="341.015625"/>
       <use xlink:href="#Roboto-Medium-37" x="397.851562"/>
       <use xlink:href="#Roboto-Medium-32" x="454.6875"/>
       <use xlink:href="#Roboto-Medium-33" x="511.523438"/>
       <use xlink:href="#Roboto-Medium-38" x="568.359375"/>
      </g>
     </g>
    </g>
    <g id="xtick_6">
     <g id="line2d_6">
      <g>
       <use xlink:href="#mb59653905d" x="493.9335" y="351.464336" style="fill: #58544f; stroke: #58544f; stroke-width: 0.8"/>
      </g>
     </g>
     <g id="text_6">
      <!-- $4592607238- -->
      <g style="fill: #58544f" transform="translate(449.31683 399.934381) rotate(-45) scale(0.08 -0.08)">
       <use xlink:href="#Roboto-Medium-24"/>
       <use xlink:href="#Roboto-Medium-34" x="56.835938"/>
       <use xlink:href="#Roboto-Medium-35" x="113.671875"/>
       <use xlink:href="#Roboto-Medium-39" x="170.507812"/>
       <use xlink:href="#Roboto-Medium-32" x="227.34375"/>
       <use xlink:href="#Roboto-Medium-36" x="284.179688"/>
       <use xlink:href="#Roboto-Medium-30" x="341.015625"/>
       <use xlink:href="#Roboto-Medium-37" x="397.851562"/>
       <use xlink:href="#Roboto-Medium-32" x="454.6875"/>
       <use xlink:href="#Roboto-Medium-33" x="511.523438"/>
       <use xlink:href="#Roboto-Medium-38" x="568.359375"/>
       <use xlink:href="#Roboto-Medium-2d" x="625.195312"/>
      </g>
      <!-- $5511128685 -->
      <g style="fill: #58544f" transform="translate(457.413203 404.318443) rotate(-45) scale(0.08 -0.08)">
       <use xlink:href="#Roboto-Medium-24"/>
       <use xlink:href="#Roboto-Medium-35" x="56.835938"/>
       <use xlink:href="#Roboto-Medium-35" x="113.671875"/>
       <use xlink:href="#Roboto-Medium-31" x="170.507812"/>
       <use xlink:href="#Roboto-Medium-31" x="227.34375"/>
       <use xlink:href="#Roboto-Medium-31" x="284.179688"/>
       <use xlink:href="#Roboto-Medium-32" x="341.015625"/>
       <use xlink:href="#Roboto-Medium-38" x="397.851562"/>
       <use xlink:href="#Roboto-Medium-36" x="454.6875"/>
       <use xlink:href="#Roboto-Medium-38" x="511.523438"/>
       <use xlink:href="#Roboto-Medium-35" x="568.359375"/>
      </g>
     </g>
    </g>
    <g id="xtick_7">
     <g id="line2d_7">
      <g>
       <use xlink:href="#mb59653905d" x="573.7705" y="351.464336" style="fill: #58544f; stroke: #58544f; stroke-width: 0.8"/>
      </g>
     </g>
     <g id="text_7">
      <!-- $5511128685- -->
      <g style="fill: #58544f" transform="translate(529.15383 399.934381) rotate(-45) scale(0.08 -0.08)">
       <use xlink:href="#Roboto-Medium-24"/>
       <use xlink:href="#Roboto-Medium-35" x="56.835938"/>
       <use xlink:href="#Roboto-Medium-35" x="113.671875"/>
       <use xlink:href="#Roboto-Medium-31" x="170.507812"/>
       <use xlink:href="#Roboto-Medium-31" x="227.34375"/>
       <use xlink:href="#Roboto-Medium-31" x="284.179688"/>
       <use xlink:href="#Roboto-Medium-32" x="341.015625"/>
       <use xlink:href="#Roboto-Medium-38" x="397.851562"/>
       <use xlink:href="#Roboto-Medium-36" x="454.6875"/>
       <use xlink:href="#Roboto-Medium-38" x="511.523438"/>
       <use xlink:href="#Roboto-Medium-35" x="568.359375"/>
       <use xlink:href="#Roboto-Medium-2d" x="625.195312"/>
      </g>
      <!-- $6429650132 -->
      <g style="fill: #58544f" transform="translate(537.250203 404.318443) rotate(-45) scale(0.08 -0.08)">
       <use xlink:href="#Roboto-Medium-24"/>
       <use xlink:href="#Roboto-Medium-36" x="56.835938"/>
       <use xlink:href="#Roboto-Medium-34" x="113.671875"/>
       <use xlink:href="#Roboto-Medium-32" x="170.507812"/>
       <use xlink:href="#Roboto-Medium-39" x="227.34375"/>
       <use xlink:href="#Roboto-Medium-36" x="284.179688"/>
       <use xlink:href="#Roboto-Medium-35" x="341.015625"/>
       <use xlink:href="#Roboto-Medium-30" x="397.851562"/>
       <use xlink:href="#Roboto-Medium-31" x="454.6875"/>
       <use xlink:href="#Roboto-Medium-33" x="511.523438"/>
       <use xlink:href="#Roboto-Medium-32" x="568.359375"/>
      </g>
     </g>
    </g>
    <g id="xtick_8">
     <g id="line2d_8">
      <g>
       <use xlink:href="#mb59653905d" x="653.6075" y="351.464336" style="fill: #58544f; stroke: #58544f; stroke-width: 0.8"/>
      </g>
     </g>
     <g id="text_8">
      <!-- $6429650132- -->
      <g style="fill: #58544f" transform="translate(608.99083 399.934381) rotate(-45) scale(0.08 -0.08)">
       <use xlink:href="#Roboto-Medium-24"/>
       <use xlink:href="#Roboto-Medium-36" x="56.835938"/>
       <use xlink:href="#Roboto-Medium-34" x="113.671875"/>
       <use xlink:href="#Roboto-Medium-32" x="170.507812"/>
       <use xlink:href="#Roboto-Medium-39" x="227.34375"/>
       <use xlink:href="#Roboto-Medium-36" x="284.179688"/>
       <use xlink:href="#Roboto-Medium-35" x="341.015625"/>
       <use xlink:href="#Roboto-Medium-30" x="397.851562"/>
       <use xlink:href="#Roboto-Medium-31" x="454.6875"/>
       <use xlink:href="#Roboto-Medium-33" x="511.523438"/>
       <use xlink:href="#Roboto-Medium-32" x="568.359375"/>
       <use xlink:href="#Roboto-Medium-2d" x="625.195312"/>
      </g>
      <!-- $7348171579 -->
      <g style="fill: #58544f" transform="translate(617.087203 404.318443) rotate(-45) scale(0.08 -0.08)">
       <use xlink:href="#Roboto-Medium-24"/>
       <use xlink:href="#Roboto-Medium-37" x="56.835938"/>
       <use xlink:href="#Roboto-Medium-33" x="113.671875"/>
       <use xlink:href="#Roboto-Medium-34" x="170.507812"/>
       <use xlink:href="#Roboto-Medium-38" x="227.34375"/>
       <use xlink:href="#Roboto-Medium-31" x="284.179688"/>
       <use xlink:href="#Roboto-Medium-37" x="341.015625"/>
       <use xlink:href="#Roboto-Medium-31" x="397.851562"/>
       <use xlink:href="#Roboto-Medium-35" x="454.6875"/>
       <use xlink:href="#Roboto-Medium-37" x="511.523438"/>
       <use xlink:href="#Roboto-Medium-39" x="568.359375"/>
      </g>
     </g>
    </g>
    <g id="xtick_9">
     <g id="line2d_9">
      <g>
       <use xlink:href="#mb59653905d" x="733.4445" y="351.464336" style="fill: #58544f; stroke: #58544f; stroke-width: 0.8"/>
      </g>
     </g>
     <g id="text_9">
      <!-- $7348171579- -->
      <g style="fill: #58544f" transform="translate(688.82783 399.934381) rotate(-45) scale(0.08 -0.08)">
       <use xlink:href="#Roboto-Medium-24"/>
       <use xlink:href="#Roboto-Medium-37" x="56.835938"/>
       <use xlink:href="#Roboto-Medium-33" x="113.671875"/>
       <use xlink:href="#Roboto-Medium-34" x="170.507812"/>
       <use xlink:href="#Roboto-Medium-38" x="227.34375"/>
       <use xlink:href="#Roboto-Medium-31" x="284.179688"/>
       <use xlink:href="#Roboto-Medium-37" x="341.015625"/>
       <use xlink:href="#Roboto-Medium-31" x="397.851562"/>
       <use xlink:href="#Roboto-Medium-35" x="454.6875"/>
       <use xlink:href="#Roboto-Medium-37" x="511.523438"/>
       <use xlink:href="#Roboto-Medium-39" x="568.359375"/>
       <use xlink:href="#Roboto-Medium-2d" x="625.195312"/>
      </g>
      <!-- $8266693027 -->
      <g style="fill: #58544f" transform="translate(696.924203 404.318443) rotate(-45) scale(0.08 -0.08)">
       <use xlink:href="#Roboto-Medium-24"/>
       <use xlink:href="#Roboto-Medium-38" x="56.835938"/>
       <use xlink:href="#Roboto-Medium-32" x="113.671875"/>
       <use xlink:href="#Roboto-Medium-36" x="170.507812"/>
       <use xlink:href="#Roboto-Medium-36" x="227.34375"/>
       <use xlink:href="#Roboto-Medium-36" x="284.179688"/>
       <use xlink:href="#Roboto-Medium-39" x="341.015625"/>
       <use xlink:href="#Roboto-Medium-33" x="397.851562"/>
       <use xlink:href="#Roboto-Medium-30" x="454.6875"/>
       <use xlink:href="#Roboto-Medium-32" x="511.523438"/>
       <use xlink:href="#Roboto-Medium-37" x="568.359375"/>
      </g>
     </g>
    </g>
    <g id="xtick_10">
     <g id="line2d_10">
      <g>
       <use xlink:href="#mb59653905d" x="813.2815" y="351.464336" style="fill: #58544f; stroke: #58544f; stroke-width: 0.8"/>
      </g>
     </g>
     <g id="text_10">
      <!-- $8266693027- -->
      <g style="fill: #58544f" transform="translate(768.66483 399.934381) rotate(-45) scale(0.08 -0.08)">
       <use xlink:href="#Roboto-Medium-24"/>
       <use xlink:href="#Roboto-Medium-38" x="56.835938"/>
       <use xlink:href="#Roboto-Medium-32" x="113.671875"/>
       <use xlink:href="#Roboto-Medium-36" x="170.507812"/>
       <use xlink:href="#Roboto-Medium-36" x="227.34375"/>
       <use xlink:href="#Roboto-Medium-36" x="284.179688"/>
       <use xlink:href="#Roboto-Medium-39" x="341.015625"/>
       <use xlink:href="#Roboto-Medium-33" x="397.851562"/>
       <use xlink:href="#Roboto-Medium-30" x="454.6875"/>
       <use xlink:href="#Roboto-Medium-32" x="511.523438"/>
       <use xlink:href="#Roboto-Medium-37" x="568.359375"/>
       <use xlink:href="#Roboto-Medium-2d" x="625.195312"/>
      </g>
      <!-- $9185214474 -->
      <g style="fill: #58544f" transform="translate(776.761203 404.318443) rotate(-45) scale(0.08 -0.08)">
       <use xlink:href="#Roboto-Medium-24"/>
       <use xlink:href="#Roboto-Medium-39" x="56.835938"/>
       <use xlink:href="#Roboto-Medium-31" x="113.671875"/>
       <use xlink:href="#Roboto-Medium-38" x="170.507812"/>
       <use xlink:href="#Roboto-Medium-35" x="227.34375"/>
       <use xlink:href="#Roboto-Medium-32" x="284.179688"/>
       <use xlink:href="#Roboto-Medium-31" x="341.015625"/>
       <use xlink:href="#Roboto-Medium-34" x="397.851562"/>
       <use xlink:href="#Roboto-Medium-34" x="454.6875"/>
       <use xlink:href="#Roboto-Medium-37" x="511.523438"/>
       <use xlink:href="#Roboto-Medium-34" x="568.359375"/>
      </g>
     </g>
    </g>
    <g id="text_11">
     <!-- Income Brackets -->
     <g style="fill: #58544f" transform="translate(416.309531 418.823647) scale(0.1 -0.1)">
      <defs>
       <path id="Roboto-Medium-49" d="M 1297 0 
L 509 0 
L 509 4550 
L 1297 4550 
L 1297 0 
z
" transform="scale(0.015625)"/>
       <path id="Roboto-Medium-6e" d="M 1094 3381 
L 1116 2991 
Q 1491 3444 2100 3444 
Q 3156 3444 3175 2234 
L 3175 0 
L 2416 0 
L 2416 2191 
Q 2416 2513 2277 2667 
Q 2138 2822 1822 2822 
Q 1363 2822 1138 2406 
L 1138 0 
L 378 0 
L 378 3381 
L 1094 3381 
z
" transform="scale(0.015625)"/>
       <path id="Roboto-Medium-63" d="M 1778 544 
Q 2063 544 2250 709 
Q 2438 875 2450 1119 
L 3166 1119 
Q 3153 803 2968 529 
Q 2784 256 2468 96 
Q 2153 -63 1788 -63 
Q 1078 -63 662 396 
Q 247 856 247 1666 
L 247 1744 
Q 247 2516 659 2980 
Q 1072 3444 1784 3444 
Q 2388 3444 2767 3092 
Q 3147 2741 3166 2169 
L 2450 2169 
Q 2438 2459 2252 2646 
Q 2066 2834 1778 2834 
Q 1409 2834 1209 2567 
Q 1009 2300 1006 1756 
L 1006 1634 
Q 1006 1084 1204 814 
Q 1403 544 1778 544 
z
" transform="scale(0.015625)"/>
       <path id="Roboto-Medium-6f" d="M 247 1722 
Q 247 2219 444 2617 
Q 641 3016 997 3230 
Q 1353 3444 1816 3444 
Q 2500 3444 2926 3003 
Q 3353 2563 3388 1834 
L 3391 1656 
Q 3391 1156 3198 762 
Q 3006 369 2648 153 
Q 2291 -63 1822 -63 
Q 1106 -63 676 414 
Q 247 891 247 1684 
L 247 1722 
z
M 1006 1656 
Q 1006 1134 1222 839 
Q 1438 544 1822 544 
Q 2206 544 2420 844 
Q 2634 1144 2634 1722 
Q 2634 2234 2414 2534 
Q 2194 2834 1816 2834 
Q 1444 2834 1225 2539 
Q 1006 2244 1006 1656 
z
" transform="scale(0.015625)"/>
       <path id="Roboto-Medium-6d" d="M 1103 3381 
L 1125 3028 
Q 1481 3444 2100 3444 
Q 2778 3444 3028 2925 
Q 3397 3444 4066 3444 
Q 4625 3444 4898 3134 
Q 5172 2825 5178 2222 
L 5178 0 
L 4419 0 
L 4419 2200 
Q 4419 2522 4278 2672 
Q 4138 2822 3813 2822 
Q 3553 2822 3389 2683 
Q 3225 2544 3159 2319 
L 3163 0 
L 2403 0 
L 2403 2225 
Q 2388 2822 1794 2822 
Q 1338 2822 1147 2450 
L 1147 0 
L 388 0 
L 388 3381 
L 1103 3381 
z
" transform="scale(0.015625)"/>
       <path id="Roboto-Medium-65" d="M 1878 -63 
Q 1156 -63 707 392 
Q 259 847 259 1603 
L 259 1697 
Q 259 2203 454 2601 
Q 650 3000 1003 3222 
Q 1356 3444 1791 3444 
Q 2481 3444 2857 3003 
Q 3234 2563 3234 1756 
L 3234 1450 
L 1025 1450 
Q 1059 1031 1304 787 
Q 1550 544 1922 544 
Q 2444 544 2772 966 
L 3181 575 
Q 2978 272 2639 104 
Q 2300 -63 1878 -63 
z
M 1788 2834 
Q 1475 2834 1283 2615 
Q 1091 2397 1038 2006 
L 2484 2006 
L 2484 2063 
Q 2459 2444 2281 2639 
Q 2103 2834 1788 2834 
z
" transform="scale(0.015625)"/>
       <path id="Roboto-Medium-20" transform="scale(0.015625)"/>
       <path id="Roboto-Medium-42" d="M 463 0 
L 463 4550 
L 2022 4550 
Q 2794 4550 3197 4240 
Q 3600 3931 3600 3319 
Q 3600 3006 3431 2756 
Q 3263 2506 2938 2369 
Q 3306 2269 3507 1992 
Q 3709 1716 3709 1328 
Q 3709 688 3298 344 
Q 2888 0 2122 0 
L 463 0 
z
M 1253 2053 
L 1253 631 
L 2131 631 
Q 2503 631 2712 815 
Q 2922 1000 2922 1328 
Q 2922 2038 2197 2053 
L 1253 2053 
z
M 1253 2634 
L 2028 2634 
Q 2397 2634 2605 2801 
Q 2813 2969 2813 3275 
Q 2813 3613 2620 3763 
Q 2428 3913 2022 3913 
L 1253 3913 
L 1253 2634 
z
" transform="scale(0.015625)"/>
       <path id="Roboto-Medium-72" d="M 2159 2688 
Q 2009 2713 1850 2713 
Q 1328 2713 1147 2313 
L 1147 0 
L 388 0 
L 388 3381 
L 1113 3381 
L 1131 3003 
Q 1406 3444 1894 3444 
Q 2056 3444 2163 3400 
L 2159 2688 
z
" transform="scale(0.015625)"/>
       <path id="Roboto-Medium-61" d="M 2409 0 
Q 2359 97 2322 316 
Q 1959 -63 1434 -63 
Q 925 -63 603 228 
Q 281 519 281 947 
Q 281 1488 682 1777 
Q 1084 2066 1831 2066 
L 2297 2066 
L 2297 2288 
Q 2297 2550 2150 2708 
Q 2003 2866 1703 2866 
Q 1444 2866 1278 2736 
Q 1113 2606 1113 2406 
L 353 2406 
Q 353 2684 537 2926 
Q 722 3169 1039 3306 
Q 1356 3444 1747 3444 
Q 2341 3444 2694 3145 
Q 3047 2847 3056 2306 
L 3056 781 
Q 3056 325 3184 53 
L 3184 0 
L 2409 0 
z
M 1575 547 
Q 1800 547 1998 656 
Q 2197 766 2297 950 
L 2297 1588 
L 1888 1588 
Q 1466 1588 1253 1441 
Q 1041 1294 1041 1025 
Q 1041 806 1186 676 
Q 1331 547 1575 547 
z
" transform="scale(0.015625)"/>
       <path id="Roboto-Medium-6b" d="M 1488 1450 
L 1150 1103 
L 1150 0 
L 391 0 
L 391 4800 
L 1150 4800 
L 1150 2031 
L 1388 2328 
L 2322 3381 
L 3234 3381 
L 1978 1972 
L 3369 0 
L 2491 0 
L 1488 1450 
z
" transform="scale(0.015625)"/>
       <path id="Roboto-Medium-74" d="M 1341 4203 
L 1341 3381 
L 1938 3381 
L 1938 2819 
L 1341 2819 
L 1341 931 
Q 1341 738 1417 652 
Q 1494 566 1691 566 
Q 1822 566 1956 597 
L 1956 9 
Q 1697 -63 1456 -63 
Q 581 -63 581 903 
L 581 2819 
L 25 2819 
L 25 3381 
L 581 3381 
L 581 4203 
L 1341 4203 
z
" transform="scale(0.015625)"/>
       <path id="Roboto-Medium-73" d="M 2284 919 
Q 2284 1122 2117 1228 
Q 1950 1334 1562 1415 
Q 1175 1497 916 1622 
Q 347 1897 347 2419 
Q 347 2856 715 3150 
Q 1084 3444 1653 3444 
Q 2259 3444 2632 3144 
Q 3006 2844 3006 2366 
L 2247 2366 
Q 2247 2584 2084 2729 
Q 1922 2875 1653 2875 
Q 1403 2875 1245 2759 
Q 1088 2644 1088 2450 
Q 1088 2275 1234 2178 
Q 1381 2081 1828 1982 
Q 2275 1884 2529 1748 
Q 2784 1613 2907 1422 
Q 3031 1231 3031 959 
Q 3031 503 2653 220 
Q 2275 -63 1663 -63 
Q 1247 -63 922 87 
Q 597 238 415 500 
Q 234 763 234 1066 
L 972 1066 
Q 988 797 1175 651 
Q 1363 506 1672 506 
Q 1972 506 2128 620 
Q 2284 734 2284 919 
z
" transform="scale(0.015625)"/>
      </defs>
      <use xlink:href="#Roboto-Medium-49"/>
      <use xlink:href="#Roboto-Medium-6e" x="28.222656"/>
      <use xlink:href="#Roboto-Medium-63" x="83.837891"/>
      <use xlink:href="#Roboto-Medium-6f" x="136.181641"/>
      <use xlink:href="#Roboto-Medium-6d" x="193.115234"/>
      <use xlink:href="#Roboto-Medium-65" x="280.126953"/>
      <use xlink:href="#Roboto-Medium-20" x="333.789062"/>
      <use xlink:href="#Roboto-Medium-42" x="358.691406"/>
      <use xlink:href="#Roboto-Medium-72" x="421.777344"/>
      <use xlink:href="#Roboto-Medium-61" x="456.933594"/>
      <use xlink:href="#Roboto-Medium-63" x="511.035156"/>
      <use xlink:href="#Roboto-Medium-6b" x="563.378906"/>
      <use xlink:href="#Roboto-Medium-65" x="615.576172"/>
      <use xlink:href="#Roboto-Medium-74" x="669.238281"/>
      <use xlink:href="#Roboto-Medium-73" x="702.490234"/>
     </g>
    </g>
   </g>
   <g id="matplotlib.axis_2">
    <g id="ytick_1">
     <g id="line2d_11">
      <defs>
       <path id="ma53f45c2f5" d="M 0 0 
L -3.5 0 
" style="stroke: #58544f; stroke-width: 0.8"/>
      </defs>
      <g>
       <use xlink:href="#ma53f45c2f5" x="54.83" y="351.464336" style="fill: #58544f; stroke: #58544f; stroke-width: 0.8"/>
      </g>
     </g>
     <g id="text_12">
      <!-- 0 -->
      <g style="fill: #58544f" transform="translate(43.2825 354.464336) scale(0.08 -0.08)">
       <use xlink:href="#Roboto-Medium-30"/>
      </g>
     </g>
    </g>
    <g id="ytick_2">
     <g id="line2d_12">
      <g>
       <use xlink:href="#ma53f45c2f5" x="54.83" y="288.303358" style="fill: #58544f; stroke: #58544f; stroke-width: 0.8"/>
      </g>
     </g>
     <g id="text_13">
      <!-- 5000 -->
      <g style="fill: #58544f" transform="translate(29.64 291.303358) scale(0.08 -0.08)">
       <use xlink:href="#Roboto-Medium-35"/>
       <use xlink:href="#Roboto-Medium-30" x="56.835938"/>
       <use xlink:href="#Roboto-Medium-30" x="113.671875"/>
       <use xlink:href="#Roboto-Medium-30" x="170.507812"/>
      </g>
     </g>
    </g>
    <g id="ytick_3">
     <g id="line2d_13">
      <g>
       <use xlink:href="#ma53f45c2f5" x="54.83" y="225.14238" style="fill: #58544f; stroke: #58544f; stroke-width: 0.8"/>
      </g>
     </g>
     <g id="text_14">
      <!-- 10000 -->
      <g style="fill: #58544f" transform="translate(25.0925 228.14238) scale(0.08 -0.08)">
       <use xlink:href="#Roboto-Medium-31"/>
       <use xlink:href="#Roboto-Medium-30" x="56.835938"/>
       <use xlink:href="#Roboto-Medium-30" x="113.671875"/>
       <use xlink:href="#Roboto-Medium-30" x="170.507812"/>
       <use xlink:href="#Roboto-Medium-30" x="227.34375"/>
      </g>
     </g>
    </g>
    <g id="ytick_4">
     <g id="line2d_14">
      <g>
       <use xlink:href="#ma53f45c2f5" x="54.83" y="161.981402" style="fill: #58544f; stroke: #58544f; stroke-width: 0.8"/>
      </g>
     </g>
     <g id="text_15">
      <!-- 15000 -->
      <g style="fill: #58544f" transform="translate(25.0925 164.981402) scale(0.08 -0.08)">
       <use xlink:href="#Roboto-Medium-31"/>
       <use xlink:href="#Roboto-Medium-35" x="56.835938"/>
       <use xlink:href="#Roboto-Medium-30" x="113.671875"/>
       <use xlink:href="#Roboto-Medium-30" x="170.507812"/>
       <use xlink:href="#Roboto-Medium-30" x="227.34375"/>
      </g>
     </g>
    </g>
    <g id="ytick_5">
     <g id="line2d_15">
      <g>
       <use xlink:href="#ma53f45c2f5" x="54.83" y="98.820424" style="fill: #58544f; stroke: #58544f; stroke-width: 0.8"/>
      </g>
     </g>
     <g id="text_16">
      <!-- 20000 -->
      <g style="fill: #58544f" transform="translate(25.0925 101.820424) scale(0.08 -0.08)">
       <use xlink:href="#Roboto-Medium-32"/>
       <use xlink:href="#Roboto-Medium-30" x="56.835938"/>
       <use xlink:href="#Roboto-Medium-30" x="113.671875"/>
       <use xlink:href="#Roboto-Medium-30" x="170.507812"/>
       <use xlink:href="#Roboto-Medium-30" x="227.34375"/>
      </g>
     </g>
    </g>
    <g id="ytick_6">
     <g id="line2d_16">
      <g>
       <use xlink:href="#ma53f45c2f5" x="54.83" y="35.659446" style="fill: #58544f; stroke: #58544f; stroke-width: 0.8"/>
      </g>
     </g>
     <g id="text_17">
      <!-- 25000 -->
      <g style="fill: #58544f" transform="translate(25.0925 38.659446) scale(0.08 -0.08)">
       <use xlink:href="#Roboto-Medium-32"/>
       <use xlink:href="#Roboto-Medium-35" x="56.835938"/>
       <use xlink:href="#Roboto-Medium-30" x="113.671875"/>
       <use xlink:href="#Roboto-Medium-30" x="170.507812"/>
       <use xlink:href="#Roboto-Medium-30" x="227.34375"/>
      </g>
     </g>
    </g>
    <g id="text_18">
     <!-- Number of Customers -->
     <g style="fill: #58544f" transform="translate(19.06125 238.000605) rotate(-90) scale(0.1 -0.1)">
      <defs>
       <path id="Roboto-Medium-4e" d="M 4072 0 
L 3281 0 
L 1253 3228 
L 1253 0 
L 463 0 
L 463 4550 
L 1253 4550 
L 3288 1309 
L 3288 4550 
L 4072 4550 
L 4072 0 
z
" transform="scale(0.015625)"/>
       <path id="Roboto-Medium-75" d="M 2438 331 
Q 2103 -63 1488 -63 
Q 938 -63 655 259 
Q 372 581 372 1191 
L 372 3381 
L 1131 3381 
L 1131 1200 
Q 1131 556 1666 556 
Q 2219 556 2413 953 
L 2413 3381 
L 3172 3381 
L 3172 0 
L 2456 0 
L 2438 331 
z
" transform="scale(0.015625)"/>
       <path id="Roboto-Medium-62" d="M 3356 1656 
Q 3356 869 3004 403 
Q 2653 -63 2038 -63 
Q 1444 -63 1113 366 
L 1075 0 
L 388 0 
L 388 4800 
L 1147 4800 
L 1147 3056 
Q 1475 3444 2031 3444 
Q 2650 3444 3003 2984 
Q 3356 2525 3356 1700 
L 3356 1656 
z
M 2597 1722 
Q 2597 2272 2403 2547 
Q 2209 2822 1841 2822 
Q 1347 2822 1147 2391 
L 1147 997 
Q 1350 556 1847 556 
Q 2203 556 2397 822 
Q 2591 1088 2597 1625 
L 2597 1722 
z
" transform="scale(0.015625)"/>
       <path id="Roboto-Medium-66" d="M 656 0 
L 656 2819 
L 141 2819 
L 141 3381 
L 656 3381 
L 656 3691 
Q 656 4253 968 4559 
Q 1281 4866 1844 4866 
Q 2044 4866 2269 4809 
L 2250 4216 
Q 2125 4241 1959 4241 
Q 1416 4241 1416 3681 
L 1416 3381 
L 2103 3381 
L 2103 2819 
L 1416 2819 
L 1416 0 
L 656 0 
z
" transform="scale(0.015625)"/>
       <path id="Roboto-Medium-43" d="M 3934 1481 
Q 3866 753 3397 345 
Q 2928 -63 2150 -63 
Q 1606 -63 1192 195 
Q 778 453 553 928 
Q 328 1403 319 2031 
L 319 2456 
Q 319 3100 547 3590 
Q 775 4081 1201 4347 
Q 1628 4613 2188 4613 
Q 2941 4613 3400 4203 
Q 3859 3794 3934 3047 
L 3147 3047 
Q 3091 3538 2861 3755 
Q 2631 3972 2188 3972 
Q 1672 3972 1395 3595 
Q 1119 3219 1113 2491 
L 1113 2088 
Q 1113 1350 1377 962 
Q 1641 575 2150 575 
Q 2616 575 2850 784 
Q 3084 994 3147 1481 
L 3934 1481 
z
" transform="scale(0.015625)"/>
      </defs>
      <use xlink:href="#Roboto-Medium-4e"/>
      <use xlink:href="#Roboto-Medium-75" x="70.996094"/>
      <use xlink:href="#Roboto-Medium-6d" x="126.5625"/>
      <use xlink:href="#Roboto-Medium-62" x="213.574219"/>
      <use xlink:href="#Roboto-Medium-65" x="269.873047"/>
      <use xlink:href="#Roboto-Medium-72" x="323.535156"/>
      <use xlink:href="#Roboto-Medium-20" x="358.691406"/>
      <use xlink:href="#Roboto-Medium-6f" x="383.59375"/>
      <use xlink:href="#Roboto-Medium-66" x="440.527344"/>
      <use xlink:href="#Roboto-Medium-20" x="475.976562"/>
      <use xlink:href="#Roboto-Medium-43" x="500.878906"/>
      <use xlink:href="#Roboto-Medium-75" x="566.162109"/>
      <use xlink:href="#Roboto-Medium-73" x="621.728516"/>
      <use xlink:href="#Roboto-Medium-74" x="673.339844"/>
      <use xlink:href="#Roboto-Medium-6f" x="706.591797"/>
      <use xlink:href="#Roboto-Medium-6d" x="763.525391"/>
      <use xlink:href="#Roboto-Medium-65" x="850.537109"/>
      <use xlink:href="#Roboto-Medium-72" x="904.199219"/>
      <use xlink:href="#Roboto-Medium-73" x="939.355469"/>
     </g>
    </g>
   </g>
   <g id="patch_13">
    <path d="M 54.83 351.464336 
L 54.83 25.44 
" style="fill: none; stroke: #58544f; stroke-width: 0.8; stroke-linejoin: miter; stroke-linecap: square"/>
   </g>
   <g id="patch_14">
    <path d="M 853.2 351.464336 
L 853.2 25.44 
" style="fill: none; stroke: #58544f; stroke-width: 0.8; stroke-linejoin: miter; stroke-linecap: square"/>
   </g>
   <g id="patch_15">
    <path d="M 54.83 351.464336 
L 853.2 351.464336 
" style="fill: none; stroke: #58544f; stroke-width: 0.8; stroke-linejoin: miter; stroke-linecap: square"/>
   </g>
   <g id="patch_16">
    <path d="M 54.83 25.44 
L 853.2 25.44 
" style="fill: none; stroke: #58544f; stroke-width: 0.8; stroke-linejoin: miter; stroke-linecap: square"/>
   </g>
   <g id="text_19">
    <!-- Customer Distribution by Gross Income -->
    <g transform="translate(348.425313 19.44) scale(0.12 -0.12)">
     <defs>
      <path id="Roboto-Medium-44" d="M 463 0 
L 463 4550 
L 1806 4550 
Q 2409 4550 2876 4281 
Q 3344 4013 3600 3519 
Q 3856 3025 3856 2388 
L 3856 2159 
Q 3856 1513 3598 1022 
Q 3341 531 2864 265 
Q 2388 0 1772 0 
L 463 0 
z
M 1253 3913 
L 1253 631 
L 1769 631 
Q 2391 631 2723 1020 
Q 3056 1409 3063 2138 
L 3063 2391 
Q 3063 3131 2741 3522 
Q 2419 3913 1806 3913 
L 1253 3913 
z
" transform="scale(0.015625)"/>
      <path id="Roboto-Medium-69" d="M 1197 0 
L 438 0 
L 438 3381 
L 1197 3381 
L 1197 0 
z
M 391 4259 
Q 391 4434 502 4550 
Q 613 4666 819 4666 
Q 1025 4666 1137 4550 
Q 1250 4434 1250 4259 
Q 1250 4088 1137 3973 
Q 1025 3859 819 3859 
Q 613 3859 502 3973 
Q 391 4088 391 4259 
z
" transform="scale(0.015625)"/>
      <path id="Roboto-Medium-79" d="M 1572 1088 
L 2259 3381 
L 3069 3381 
L 1725 -513 
Q 1416 -1366 675 -1366 
Q 509 -1366 309 -1309 
L 309 -722 
L 453 -731 
Q 741 -731 886 -626 
Q 1031 -522 1116 -275 
L 1225 16 
L 38 3381 
L 856 3381 
L 1572 1088 
z
" transform="scale(0.015625)"/>
      <path id="Roboto-Medium-47" d="M 3950 591 
Q 3703 269 3265 103 
Q 2828 -63 2272 -63 
Q 1700 -63 1259 196 
Q 819 456 580 939 
Q 341 1422 331 2066 
L 331 2422 
Q 331 3453 825 4033 
Q 1319 4613 2203 4613 
Q 2963 4613 3409 4238 
Q 3856 3863 3947 3156 
L 3172 3156 
Q 3041 3978 2219 3978 
Q 1688 3978 1411 3595 
Q 1134 3213 1125 2472 
L 1125 2122 
Q 1125 1384 1436 976 
Q 1747 569 2300 569 
Q 2906 569 3163 844 
L 3163 1734 
L 2225 1734 
L 2225 2334 
L 3950 2334 
L 3950 591 
z
" transform="scale(0.015625)"/>
     </defs>
     <use xlink:href="#Roboto-Medium-43"/>
     <use xlink:href="#Roboto-Medium-75" x="65.283203"/>
     <use xlink:href="#Roboto-Medium-73" x="120.849609"/>
     <use xlink:href="#Roboto-Medium-74" x="172.460938"/>
     <use xlink:href="#Roboto-Medium-6f" x="205.712891"/>
     <use xlink:href="#Roboto-Medium-6d" x="262.646484"/>
     <use xlink:href="#Roboto-Medium-65" x="349.658203"/>
     <use xlink:href="#Roboto-Medium-72" x="403.320312"/>
     <use xlink:href="#Roboto-Medium-20" x="438.476562"/>
     <use xlink:href="#Roboto-Medium-44" x="463.378906"/>
     <use xlink:href="#Roboto-Medium-69" x="528.710938"/>
     <use xlink:href="#Roboto-Medium-73" x="554.248047"/>
     <use xlink:href="#Roboto-Medium-74" x="605.859375"/>
     <use xlink:href="#Roboto-Medium-72" x="639.111328"/>
     <use xlink:href="#Roboto-Medium-69" x="674.267578"/>
     <use xlink:href="#Roboto-Medium-62" x="699.804688"/>
     <use xlink:href="#Roboto-Medium-75" x="756.103516"/>
     <use xlink:href="#Roboto-Medium-74" x="811.669922"/>
     <use xlink:href="#Roboto-Medium-69" x="844.921875"/>
     <use xlink:href="#Roboto-Medium-6f" x="870.458984"/>
     <use xlink:href="#Roboto-Medium-6e" x="927.392578"/>
     <use xlink:href="#Roboto-Medium-20" x="983.007812"/>
     <use xlink:href="#Roboto-Medium-62" x="1007.910156"/>
     <use xlink:href="#Roboto-Medium-79" x="1064.208984"/>
     <use xlink:href="#Roboto-Medium-20" x="1112.890625"/>
     <use xlink:href="#Roboto-Medium-47" x="1137.792969"/>
     <use xlink:href="#Roboto-Medium-72" x="1205.859375"/>
     <use xlink:href="#Roboto-Medium-6f" x="1241.015625"/>
     <use xlink:href="#Roboto-Medium-73" x="1297.949219"/>
     <use xlink:href="#Roboto-Medium-73" x="1349.560547"/>
     <use xlink:href="#Roboto-Medium-20" x="1401.171875"/>
     <use xlink:href="#Roboto-Medium-49" x="1426.074219"/>
     <use xlink:href="#Roboto-Medium-6e" x="1454.296875"/>
     <use xlink:href="#Roboto-Medium-63" x="1509.912109"/>
     <use xlink:href="#Roboto-Medium-6f" x="1562.255859"/>
     <use xlink:href="#Roboto-Medium-6d" x="1619.189453"/>
     <use xlink:href="#Roboto-Medium-65" x="1706.201172"/>
    </g>
   </g>
  </g>
 </g>
 <defs>
  <clipPath id="pa05a7c2820">
   <rect x="54.83" y="25.44" width="798.37" height="326.024336"/>
  </clipPath>
 </defs>
</svg>
